<svg xmlns="http://www.w3.org/2000/svg" xmlns:xlink="http://www.w3.org/1999/xlink" xmlns:lucid="lucid" width="2359.96" height="2387.33"><g transform="translate(873.9595606805032 1040.6666666666665)" lucid:page-tab-id="0_0"><path d="M-1000-1500h2500v3000h-2500z" fill="#fff"/><path d="M-871.96-655.33a12 12 0 0 1 12-12H1472a12 12 0 0 1 12 12v1988a12 12 0 0 1-12 12H-859.96a12 12 0 0 1-12-12z" stroke="#000" stroke-width="4" fill="#fff"/><path d="M-187.84-193.93c-5.85 0-12.24 5.84-12.24 11.74v51.75h12.25v-24h11.75v24h11.7v-51.74c0-5.9-5.85-11.73-12.24-11.73h-11.22zm0 27.23v-16.06h11.75v16.06h-11.74zM-143.57-194.44c-6.4 0-12.25 5.88-12.25 11.7v52.3h11.7v-24h11.76c5.86 0 12.25-5.9 12.25-11.72v-16c0-5.88-5.87-11.77-12.26-11.77h-11.2v-.5zm-.54 27.7v-16h11.74v16h-11.75zM-99.8-182.2v40h-12.25v11.75h36.23v-11.74h-11.74v-40h11.74v-11.73h-36.23v11.74h12.25z" fill="#5c85de"/><path d="M-187.82-154.4v-12.27h8l-8 12.26zM-144.04-154.4v-12.27h6.93l-6.94 12.26zM-99.76-174.16v-8h12.27l-12.26 8z" fill="#3367d6"/><path d="M-203.82-200.84v76.8h128v-76.8z" fill-opacity="0"/><path d="M408.42 732.68c-10.02 9.74-15.83 26.5-15.83 44.62 0 18.12 5.8 34.88 15.82 44.62 1.62 1.35 2.26 2.97 2.26 4.87 0 1.88-.64 3.77-2.26 5.12-1.3 1.36-3.23 1.9-5.17 1.9s-3.55-.55-5.17-1.9c-21.65-20.82-70.76-20.82-92.4 0-2.92 2.7-7.44 2.7-10.35 0-1.62-1.35-2.26-3.24-2.26-5.13 0-1.9.64-3.53 2.26-4.88 10.02-9.74 16.16-26.5 16.16-44.62 0-18.12-6.15-34.88-16.17-44.62-1.62-1.35-2.26-3.24-2.26-4.86 0-1.9.64-3.8 2.26-5.14 2.9-2.7 7.43-2.7 10.34 0 21.65 20.82 70.76 20.82 92.4 0 2.92-2.7 7.44-2.7 10.35 0 1.62 1.35 2.26 3.24 2.26 5.14 0 1.62-.64 3.5-2.26 4.86zm-152.5 51.65c-1.63 15.96-15.52 28.4-32.65 28.4-18.1 0-32.95-14.34-32.95-31.9 0-17.6 14.86-31.92 32.95-31.92 14.54 0 26.5 8.93 31.02 21.37h25.2L272.4 760l12.27-7.85 14.54 21.37c1.62 2.43 1.62 5.4 0 7.84l-14.53 21.1-12.28-7.85 7.1-10.27zm4.2-70.85c-18.1 0-32.97-14.06-32.97-31.63 0-17.58 14.86-31.9 32.96-31.9s32.97 14.32 32.97 31.9c0 17.57-14.87 31.63-32.96 31.63zm0 127.37c18.08 0 32.95 14.33 32.95 31.9 0 17.58-14.87 31.9-32.96 31.9-18.1 0-32.95-14.32-32.95-31.9 0-17.57 14.86-31.9 32.96-31.9zm176.1-127.37c-18.1 0-32.97-14.06-32.97-31.63 0-17.58 14.87-31.9 32.96-31.9 18.43 0 33.3 14.32 33.3 31.9 0 17.57-14.87 31.63-33.3 31.63zm44.26 35.43c18.1 0 32.95 14.34 32.95 31.92 0 17.57-14.86 31.9-32.95 31.9-18.42 0-33.3-14.33-33.3-31.9 0-17.58 14.88-31.9 33.3-31.9zm-44.27 91.95c18.43 0 33.3 14.33 33.3 31.9 0 17.58-14.87 31.9-33.3 31.9-18.08 0-32.95-14.32-32.95-31.9 0-17.57 14.87-31.9 32.96-31.9zm-53.63-33.8c-3.23-8.93-4.84-19.2-4.84-29.75 0-10.54 1.6-20.82 4.84-29.74-19.06 6.22-42.33 6.22-61.4 0 3.24 8.92 4.86 19.2 4.86 29.74 0 10.55-1.62 20.82-4.85 29.75 9.7-3.25 20.03-4.6 30.7-4.6 10.66 0 21 1.35 30.7 4.6zm17.77 80.85l5.82 12.7c-18.1 7.85-37.16 11.9-57.2 11.9-20.03 0-39.4-4.05-57.5-11.9l5.8-12.7c32.64 13.8 70.45 13.8 103.08 0zM297.27 666.7l-5.82-12.97c36.2-15.42 78.52-15.42 114.7 0l-5.8 12.98c-32.64-14.06-70.45-14.06-103.08 0zM436.2 890.34c10.35 0 18.43-7.84 18.43-17.58 0-9.73-8.08-17.57-18.42-17.57-10 0-18.08 7.84-18.08 17.57 0 9.74 8.07 17.58 18.1 17.58zm0-226.33c-10 0-18.08 8.1-18.08 17.85 0 9.73 8.07 17.57 18.1 17.57 10.33 0 18.4-7.84 18.4-17.57 0-9.74-8.07-17.85-18.4-17.85zm44.28 134.4c10 0 18.4-7.85 18.4-17.58 0-9.74-8.4-17.58-18.4-17.58-10.34 0-18.42 7.84-18.42 17.58 0 9.73 8.08 17.57 18.42 17.57zM204.86 780.8c0 9.73 8.4 17.57 18.4 17.57 10.35 0 18.43-7.85 18.43-17.58 0-9.74-8.1-17.58-18.43-17.58-10 0-18.4 7.84-18.4 17.58zM260.1 664c-10 0-18.4 8.1-18.4 17.85 0 9.73 8.4 17.57 18.4 17.57 10.03 0 18.43-7.84 18.43-17.57 0-9.74-8.4-17.85-18.42-17.85zm0 226.33c10.03 0 18.43-7.84 18.43-17.58 0-9.73-8.4-17.57-18.42-17.57-10 0-18.4 7.84-18.4 17.57 0 9.74 8.4 17.58 18.4 17.58zM412 794.6l7.1-10.27h-15.83v-14.06h15.83l-7.1-10.27 11.95-7.85 14.86 21.1c1.6 2.43 1.6 5.67 0 7.84l-14.87 21.35zM227.8 744.3l-13.9-3.77c2.9-10.82 7.44-21.1 13.25-30.83l12.93 7.03c-5.17 8.65-9.37 17.85-12.28 27.58zm230.06-27.57l12.6-7.03c5.82 9.73 10.34 20 13.57 30.83l-14.22 3.78c-2.9-9.72-6.77-18.92-11.94-27.57zm-230.4 128.7c-4.5-7.3-8.06-15.13-10.97-23.24l13.56-4.88c2.9 7.3 6.14 14.33 10.34 21.1zm240.1-28.1l13.9 4.86c-2.92 7.83-6.8 15.4-11 22.7l-12.6-7.03c3.88-6.5 7.1-13.52 9.7-20.55z" stroke="#000" stroke-opacity="0" fill="#b0084d"/><path d="M480.9 778.36c0 70.07-59.06 126.95-131.84 126.95-72.77 0-131.83-56.87-131.83-126.94 0-70.08 59.06-126.96 131.83-126.96 72.78 0 131.84 56.88 131.84 126.96z" stroke="#000" stroke-opacity="0" fill-opacity="0"/><path d="M916.15 216.85c-24.57 0-44.52-7.05-44.52-16.25v85.98c0 8.9 19.6 16.15 43.9 16.26h.62c24.58 0 44.52-7.06 44.52-16.26V200.6c0 9-19.94 16.25-44.52 16.25z" stroke="#000" stroke-opacity="0" fill="url(#a)"/><path d="M960.67 200.6c0 8.94-19.94 16.2-44.52 16.2-24.57 0-44.52-7.26-44.52-16.2 0-8.95 19.95-16.2 44.52-16.2 24.58 0 44.52 7.03 44.52 16.2" stroke="#000" stroke-opacity="0" fill="#e8e8e8"/><path d="M950.2 199.23c0 5.68-15.3 10.26-34.1 10.26-18.77 0-33.94-4.6-33.94-10.27 0-5.7 15.17-10.26 33.95-10.26 18.8 0 34.1 4.64 34.1 10.26" stroke="#000" stroke-opacity="0" fill="#50e6ff"/><path d="M916.1 201.7c-9.6-.2-17.77.98-26.95 3.87 9.13 3.06 17.34 4.27 27 4.02 9.67.24 17.88-.97 27-4.03-9.23-2.9-17.44-4.08-27.05-3.87z" stroke="#000" stroke-opacity="0" fill="#198ab3"/><path d="M943.42 259.07v-23.8h-6.5v29.16h17.26v-5.36zm-50.14-11.75c-1.37-.56-2.45-1.23-3.54-2.2-.5-.67-.72-1.4-.58-2.23 0-.94.37-1.7 1.16-2.2.87-.6 1.8-.82 2.9-.8 2.6-.06 4.9.57 7 2.06v-6.06c-2.32-.86-4.48-1.2-7-1.12-3.12-.26-5.86.52-8.4 2.46-1.94 1.6-2.95 3.8-2.88 6.32 0 3.6 2.24 6.43 7 8.56 1.6.7 2.9 1.44 4.27 2.52.73.56 1.17 1.34 1.17 2.24 0 .93-.44 1.67-1.16 2.2-.93.62-1.94.92-3.1.85-3.1.03-5.7-1.05-7.94-3.17v6.55c2.45 1.2 4.76 1.7 7.5 1.6 3.04.16 5.72-.55 8.25-2.22 2.1-1.6 3.18-3.87 3.04-6.5.07-1.87-.5-3.5-1.73-4.92-1.73-1.82-3.53-3-5.92-3.94zm36.48 11.04c1.66-2.82 2.4-5.65 2.32-8.92.07-2.83-.5-5.25-1.74-7.78-1.16-2.3-2.67-3.98-4.9-5.28-2.25-1.27-4.42-1.82-7.02-1.82-2.82-.04-5.2.55-7.66 1.9-2.3 1.33-3.9 3.04-5.13 5.42-1.3 2.65-1.87 5.18-1.8 8.1-.07 2.7.5 5 1.66 7.42 1.15 2.27 2.6 3.94 4.76 5.28 2.24 1.34 4.4 1.97 7 2.05l6 7.03h8.3l-8.37-7.82c2.88-1.07 5.05-2.9 6.56-5.58zm-6.5-1.82c-2.53 2.98-6.93 3.35-9.9.86-.28-.26-.57-.52-.86-.86-1.52-2.12-2.17-4.43-1.95-7.03-.22-2.63.5-4.94 2.02-7.06 1.37-1.78 3.25-2.7 5.5-2.6 2.16-.08 3.96.85 5.26 2.6 1.45 2.2 2.03 4.43 1.88 7.07.3 2.7-.35 5.07-1.94 7.26z" stroke="#000" stroke-opacity="0" fill="#f2f2f2"/><path d="M972.07 304.13l1.7-5.57 3.27-1.9 5.7 2.53 3.65-3.76v-.4l-2.6-5.03 1.54-3.52 5.65-2.04h.63v-5.15h-.68l-5.6-1.7-1.83-3.24 2.4-5.75-3.68-3.6h-.4l-5.03 2.53-3.4-2.08-2.24-6.3h-5.2v.78l-1.7 5.56-3.54 1.53-6.12-2.8-3.6 3.75.37.68 2.64 5.24-1.36 3.58-6.6 2.03v5.22h.77l5.53 1.72 1.55 3.57-2.74 6.07 3.74 3.67.64-.37 5.2-2.67 3.55 1.4 2.37 6.3h5.16zm-8.44-16.65c-2.9-2.9-2.96-7.65-.1-10.6 2.9-2.98 7.63-3.02 10.55-.13 2.96 2.9 3 7.65.13 10.64-2.9 2.93-7.6 2.97-10.57.08z" stroke="#000" stroke-opacity="0" fill="#949494"/><path d="M351.88 364.96v255.6" stroke="#5e5e5e" stroke-width="2" fill="none"/><path d="M351.88 348.08l9.16 15.88H342.7zM351.88 639l-5.67-17.45h11.34z" stroke="#5e5e5e" stroke-width="2" fill="#5e5e5e"/><path d="M706.26 795.3H531.42" stroke="#5e5e5e" stroke-width="2" fill="none"/><path d="M707.1 794.5l.37 1.78h-1.23v-1.95h.83z" stroke="#5e5e5e" stroke-width=".05" fill="#5e5e5e"/><path d="M512.98 795.3l17.44-5.66v11.33z" stroke="#5e5e5e" stroke-width="2" fill="#5e5e5e"/><path d="M430.8 142.7h-62.4l-14.25 33.57H274.4v31.93h-25.84l25.83 102.1h170.66V142.7zm-48.76 16.7h48.15v16.87H375.2zm37.2 48.8H289.9v-15.26h140.9v60.6z" stroke="#000" stroke-opacity="0" stroke-width="16.39" fill="#db7b96"/><path d="M428.74 294.63h-89.47V188.06h89.47zm-44.63 23.8h-.2c-4.96 0-8.88 4.67-8.88 10.57 0 5.7 3.92 10.37 8.88 10.37 4.96 0 8.9-4.68 8.9-10.37v-.2c0-5.7-3.94-10.38-8.7-10.38z" stroke="#000" stroke-width="2.02" fill="#fff"/><path d="M357.04 221.62h.2c5.6 0 10.13-5.3 10.13-11.8 0-6.7-4.54-12-10.12-12-5.58 0-10.13 5.3-10.13 11.8 0 6.7 4.34 12 9.92 12zm0-19.12c3.3 0 6.2 3.26 6.2 7.12 0 4.07-2.7 7.32-6 7.32s-6.2-3.05-6.2-7.12v-.2c0-3.86 2.7-6.9 6-7.12zm0 50.84h.2c5.6 0 10.13-5.28 10.13-12 0-6.5-4.54-11.8-10.12-11.8-5.58 0-10.13 5.3-10.13 11.8 0 6.5 4.34 12 9.92 12zm0-19.1c3.3 0 6.2 3.04 6.2 7.1 0 3.87-2.7 7.12-6 7.33-3.3 0-6.2-3.05-6.2-7.12v-.2c0-3.87 2.7-7.12 6-7.12zm17.98 19.1h44.42c1.04 0 2.07-1 2.07-2.44v-50.64c0-1.42-1.02-2.44-2.06-2.44h-44.42c-1.24 0-2.07 1.02-2.07 2.44v50.64c0 1.43.83 2.44 2.07 2.44zm1.86-50.84h40.5v45.96h-40.5zm75.2 122.63h-53.92c-1.24-6.1-4.96-10.77-10.13-12.6v-8.34H424c7 0 12.8-6.93 12.8-15.27v-95.17c0-8.34-5.8-15.05-12.8-15.26H344c-7.02.2-12.8 6.92-12.8 15.26v95.17c0 8.34 5.78 15.26 12.8 15.26h35.96v8.32c-5.17 1.84-8.9 6.5-9.92 12.6h-53.93c-1.86 0-3.3 1.84-3.3 3.88 0 2.03 1.44 3.66 3.3 3.66h53.93c1.24 6.7 5.37 11.6 10.95 13 7.86 2.05 15.3-3.85 17.16-13h53.72c1.86 0 3.3-1.63 3.3-3.66 0-2.04-1.44-3.87-3.3-3.87zM344.03 190.1H424c1.85 0 3.1 1.62 3.3 3.66v70.77H340.9v-70.77c0-2.04 1.45-3.66 3.1-3.66zm-3.1 98.83V274.1h86.37v14.83c-.2 2.24-1.45 3.87-3.3 3.87H344c-1.65 0-3.1-1.63-3.1-3.87zm43.2 49.42c-4.56.2-8.28-4.06-8.28-9.35 0-5.3 3.52-9.56 8.06-9.56 4.34 0 8.06 4.07 8.06 9.36v.2c.2 5.08-3.5 9.35-7.85 9.56z" stroke="#000" stroke-opacity="0" stroke-width="16.39" fill="#e52e62"/><path d="M466.74 244.4h386" stroke="#5e5e5e" stroke-width="2" fill="none"/><path d="M448.3 244.4l17.44-5.67v11.33zM869.63 244.4l-15.88 9.16v-18.33z" stroke="#5e5e5e" stroke-width="2" fill="#5e5e5e"/><path d="M92.47 56.9a6 6 0 0 1 6-6h628a6 6 0 0 1 6 6v44a6 6 0 0 1-6 6h-628a6 6 0 0 1-6-6z" fill="none"/><use xlink:href="#b" transform="matrix(1,0,0,1,92.46607749329871,50.88832650746656) translate(45.22222222222217 36)"/><use xlink:href="#c" transform="matrix(1,0,0,1,92.46607749329871,50.88832650746656) translate(238.33333333333331 36)"/><use xlink:href="#d" transform="matrix(1,0,0,1,92.46607749329871,50.88832650746656) translate(447 36)"/><path d="M-301.56 523.97a6 6 0 0 1 6-6h228a6 6 0 0 1 6 6v48a6 6 0 0 1-6 6h-228a6 6 0 0 1-6-6z" fill="none"/><use xlink:href="#e" transform="matrix(1,0,0,1,-301.5608302117532,517.9677020318352) translate(23.444444444444443 32)"/><use xlink:href="#f" transform="matrix(1,0,0,1,-301.5608302117532,517.9677020318352) translate(45.722222222222214 80)"/><path d="M-446.67 602.33V325.67" stroke="#5e5e5e" stroke-width="2" fill="none"/><path d="M-446.67 619.2l-9.16-15.87h18.33zM-446.67 307.24l5.67 17.43h-11.33z" stroke="#5e5e5e" stroke-width="2" fill="#5e5e5e"/><path d="M787.62 825.32c-21.75 17.13-53.26 13.5-70.48-8.27-17.12-21.77-13.5-53.42 8.26-70.66.3-.2.5-.3.7-.5l.6-.4c22.05-16.75 53.47-12.4 70.18 9.76 16.6 21.98 12.48 53.12-9.26 70.06" stroke="#000" stroke-opacity="0" fill="url(#g)"/><path d="M743.2 775.04C757.98 761 775.4 754 795.78 753.9c-2.72-3.35-5.32-5.9-8.77-8.5-10.04.62-18.45 2.6-27.7 6.52-9.5 4.06-16.88 9.16-24 16.6 3.44 1.33 5.98 3.4 7.9 6.52zM718.4 795.3c-2.12 5.3-3.58 9.92-4.92 15.48 1.18 1.98 2.27 3.6 3.67 5.44 1.08 1.38 2.05 2.52 3.26 3.8 1.5-7.4 3.43-13.52 6.4-20.44-3.3-.6-5.98-1.95-8.4-4.28z" stroke="#000" stroke-opacity="0" fill="#fff" fill-opacity=".6"/><path d="M724.2 768.4c-2.2-5.9-3.43-11.13-4.08-17.38-2.6 2.76-4.55 5.35-6.5 8.6.72 5 1.72 9.18 3.33 13.96 1.97-2.48 4.25-4.13 7.24-5.2z" stroke="#000" stroke-opacity="0" fill="#f2f2f2" fill-opacity=".55"/><path d="M745.75 783.6c0 8.9-7.23 16.14-16.14 16.14-8.9 0-16.13-7.23-16.13-16.14 0-8.9 7.23-16.14 16.14-16.14 8.92 0 16.15 7.24 16.15 16.14z" stroke="#000" stroke-opacity="0" fill="url(#h)"/><path d="M753 813.06c0-2.93 1.06-5.45 3.17-7.5-5.7-3.13-10.17-6.44-14.87-10.98-2.44 2.64-5.25 4.18-8.77 4.85 2.76 2.92 5.32 5.17 8.53 7.6 3.97 2.98 7.57 5.18 12.06 7.35-.07-.45-.1-.85-.12-1.32zM790.2 814.36c-5.7 0-10.58-.57-16.17-1.9v.67c0 2.85-1 5.3-2.98 7.33 6.96 1.4 12.98 1.82 20.08 1.43 2.7-2.54 4.7-4.92 6.8-7.97-2.7.3-5 .43-7.72.43z" stroke="#000" stroke-opacity="0" fill="#f2f2f2" fill-opacity=".55"/><path d="M773.93 813.12c0 5.8-4.68 10.5-10.44 10.5-5.77 0-10.45-4.7-10.45-10.5s4.68-10.5 10.44-10.5c5.75 0 10.43 4.7 10.43 10.5z" stroke="#000" stroke-opacity="0" fill="url(#i)"/><path d="M776.45 785.14c.58-2.38 1.73-4.3 3.6-5.86-10.26-7.43-18.12-14.82-26.3-24.53-4.74-5.63-8.2-10.77-11.66-17.25-2.37.7-4.28 1.43-6.45 2.48 3.68 7.05 7.46 12.72 12.56 18.8 8.76 10.5 17.24 18.4 28.25 26.36z" stroke="#000" stroke-opacity="0" fill="#f2f2f2" fill-opacity=".7"/><path d="M798.53 787.14c0 6.16-4.98 11.16-11.1 11.16-6.13 0-11.1-5-11.1-11.16s4.97-11.16 11.1-11.16 11.1 5 11.1 11.16z" stroke="#000" stroke-opacity="0" fill="#fff"/><path d="M806.03 794.65l-1.9-1-.17-.1-1.75-.94-.3-.17-1.58-.88-.4-.23-1.85-1.06c-.65 2.27-1.86 4.03-3.74 5.46l2.2 1.27.5.26 2.05 1.15.2.12c1.65.9 3.32 1.8 5.08 2.66.74-2.27 1.25-4.22 1.67-6.57z" stroke="#000" stroke-opacity="0" fill="#f2f2f2" fill-opacity=".55"/><path d="M745.75 783.6c0 8.9-7.23 16.14-16.14 16.14-8.9 0-16.13-7.23-16.13-16.14 0-8.9 7.23-16.14 16.14-16.14 8.92 0 16.15 7.24 16.15 16.14zM773.93 813.12c0 5.8-4.68 10.5-10.44 10.5-5.77 0-10.45-4.7-10.45-10.5s4.68-10.5 10.44-10.5c5.75 0 10.43 4.7 10.43 10.5z" stroke="#000" stroke-opacity="0" fill="#fff"/><path d="M824.05 855.3h-58c-1.88 0-2.95-2.93-1.95-4.45l20.05-29.26c.25-.38.37-.8.37-1.3v-19.36c0-.6-.5-1.1-1.12-1.1h-1.07c-1.25 0-2.32-1.04-2.32-2.32v-.98c0-1.28 1.02-2.32 2.33-2.32h25.43c1.26 0 2.26 1.04 2.26 2.32v1.04c0 1.3-1 2.26-2.26 2.26h-1.06c-.7 0-1.2.55-1.2 1.16v19.3c0 .56.13.98.45 1.35l19.98 29.2c1.13 1.52 0 4.45-1.88 4.45z" stroke="#000" stroke-opacity="0" fill="url(#j)"/><path d="M772.7 847.57l15.22-22.2c.68-1 1-2 1-3.18v-8.94c0-.96.76-1.76 1.75-1.76h8.64c.95 0 1.76.77 1.76 1.76v9.58c0 .8.23 1.45.68 2.1l15.52 22.63c.4.6.27 1.44-.36 1.86-.22.16-.45.23-.72.23h-42.34c-.72 0-1.35-.57-1.35-1.33 0-.27.08-.5.2-.76z" stroke="#000" stroke-opacity="0" fill="#fff"/><path d="M777.33 840.86c7.8-5.13 16.68-6.14 25.44-2.88 0 0 5.6 3.1 7.56-.6l7.15 9.98c.64.85.4 2.05-.46 2.67-.32.24-.68.35-1.1.35h-42c-1.04 0-1.9-.85-1.9-1.92 0-.43.13-.8.36-1.15z" stroke="#000" stroke-opacity="0" fill="#3cd4c2"/><path d="M828.4 795.3h77.83a6 6 0 0 0 6-6V324.36" stroke="#5e5e5e" stroke-width="2" fill="none"/><path d="M811.52 795.3l15.88-9.16v18.33zM912.23 305.92l5.67 17.44h-11.33z" stroke="#5e5e5e" stroke-width="2" fill="#5e5e5e"/><path d="M238.84 244.4H-64.28a.2.2 0 0 1-.2-.2.2.2 0 0 0-.2-.2h-300.3" stroke="#5e5e5e" stroke-width="2" fill="none"/><path d="M255.72 244.4l-15.88 9.16v-18.33zM-383.43 244l17.44-5.66v11.32z" stroke="#5e5e5e" stroke-width="2" fill="#5e5e5e"/><path d="M801.18 1157c4.9 0 8.82-3.93 8.92-8.83v-1.03c-3.5-28.18-19.45-50.62-49.42-50.62-30.06 0-47.4 19.23-50.8 50.68-.4 4.9 3.1 9.2 8 9.74h83.3z" stroke="#000" stroke-opacity="0" fill="url(#k)"/><path d="M760.3 1103.18c-5.6-.04-10.38-1.45-15.06-4.5l14.85 39.12 14.97-38.85c-4.66 2.9-9.3 4.23-14.77 4.23z" stroke="#000" stroke-opacity="0" fill="#fff" fill-opacity=".8"/><path d="M788.3 1075.16c0 15.43-12.56 27.96-28.03 27.96s-28.03-12.53-28.03-27.96c0-15.44 12.56-27.96 28.03-27.96s28.02 12.52 28.02 27.96z" stroke="#000" stroke-opacity="0" fill="url(#l)"/><path d="M822.87 1135.28c0 16.05-19.46 29.03-23.7 31.68-.55.3-1.1.3-1.63 0-4.5-2.9-24.05-15.8-24.05-31.68v-19.6c0-.85.63-1.5 1.47-1.57 15.16-.4 11.7-7.02 23.06-7.02s7.85 6.6 23 7.03c.85.07 1.5.73 1.5 1.58z" stroke="#000" stroke-opacity="0" fill="#005ba1"/><path d="M820.52 1135.32c0 14.82-17.86 26.77-21.73 29.14-.5.27-1.05.27-1.5 0-3.88-2.37-21.78-14.1-21.78-29.14v-17.85c-.04-.7.54-1.32 1.26-1.37h.1c14.1 0 10.72-6.5 21.18-6.5 10.47 0 7.08 6.1 21.2 6.5.76 0 1.35.6 1.35 1.32v.05z" stroke="#000" stroke-opacity="0" fill="url(#m)"/><path d="M766.37 1029.07v-152.1" stroke="#5e5e5e" stroke-width="2" fill="none"/><path d="M766.37 1045.94l-9.17-15.87h18.33zM766.37 858.54l5.66 17.44H760.7z" stroke="#5e5e5e" stroke-width="2" fill="#5e5e5e"/><path d="M-33.56 1122.2H-91.1c-5.73 0-10.44 4.65-10.44 10.5l39.2 6.6 39.2-6.6c0-5.85-4.7-10.5-10.42-10.5zM-101.53 1261.7c0 5.85 4.7 10.5 10.42 10.5h57.54c5.72 0 10.42-4.65 10.42-10.5l-39.2-6.6-39.2 6.6z" stroke="#000" stroke-opacity="0" stroke-width=".29" fill="#06344c"/><path d="M-101.53 1132.7h78.4v129h-78.4v-129z" stroke="#000" stroke-opacity="0" stroke-width=".29" fill="#0299d1"/><path d="M-133.44 1118.92H-191c-5.7 0-10.4 4.65-10.4 10.5l39.19 6.6 39.18-6.6c0-5.85-4.7-10.5-10.42-10.5zM-201.4 1258.42c0 5.85 4.7 10.5 10.4 10.5h57.56c5.72 0 10.42-4.65 10.42-10.5l-39.2-6.6-39.2 6.6z" stroke="#000" stroke-opacity="0" stroke-width=".29" fill="#06344c"/><path d="M-201.4 1129.42h78.39-.02v129h-78.4v-129z" stroke="#000" stroke-opacity="0" stroke-width=".29" fill="#0299d1"/><path d="M-240.03 1122.2h-57.54c-5.73 0-10.43 4.65-10.43 10.5l39.2 6.6 39.2-6.6c0-5.85-4.7-10.5-10.43-10.5zM-308 1261.7c0 5.85 4.7 10.5 10.43 10.5h57.54c5.72 0 10.43-4.65 10.43-10.5l-39.2-6.6-39.2 6.6z" stroke="#000" stroke-opacity="0" stroke-width=".29" fill="#06344c"/><path d="M-308 1132.7h78.4v129H-308v-129z" stroke="#000" stroke-opacity="0" stroke-width=".29" fill="#0299d1"/><path d="M-261.37 1100.53V760.67a6 6 0 0 0-6-6h-18.96" stroke="#5e5e5e" stroke-width="2" fill="none"/><path d="M-261.37 1118.96l-5.67-17.43h11.33zM-304.76 754.67l17.43-5.67v11.33z" stroke="#5e5e5e" stroke-width="2" fill="#5e5e5e"/><path d="M-162.22 1097.25V718a6 6 0 0 0-6-6h-118.1" stroke="#5e5e5e" stroke-width="2" fill="none"/><path d="M-162.22 1115.7l-5.66-17.45h11.33zM-304.76 712l17.43-5.66v11.32z" stroke="#5e5e5e" stroke-width="2" fill="#5e5e5e"/><path d="M-62.34 1100.53V674a6 6 0 0 0-6-6h-220.78" stroke="#5e5e5e" stroke-width="2" fill="none"/><path d="M-62.34 1118.96l-5.66-17.43h11.33zM-306 668l15.88-9.17v18.34z" stroke="#5e5e5e" stroke-width="2" fill="#5e5e5e"/><path d="M-182.5-427.27c-5.86 0-12.25 5.84-12.25 11.75v51.74h12.25v-24h11.75v24h11.7v-51.74c0-5.9-5.84-11.75-12.24-11.75h-11.2zm0 27.24v-16.06h11.75v16.07h-11.75zM-138.24-427.78c-6.4 0-12.25 5.9-12.25 11.7v52.3h11.73v-24h11.75c5.85 0 12.24-5.9 12.24-11.7v-16c0-5.9-5.85-11.8-12.25-11.8h-11.2v-.5zm-.53 27.7v-16h11.75v16h-11.75zM-94.47-415.52v40h-12.24v11.74h36.2v-11.74H-82.2v-40h11.73v-11.75h-36.2v11.75h12.23z" fill="#5c85de"/><path d="M-182.5-387.74V-400h8l-8 12.26zM-138.7-387.74V-400h6.93l-6.94 12.26zM-94.42-407.5v-8h12.26l-12.26 8z" fill="#3367d6"/><path d="M-198.5-434.18v76.8h128v-76.8z" fill-opacity="0"/><path d="M-187.84-313.93c-5.85 0-12.24 5.84-12.24 11.74v51.75h12.25v-24h11.75v24h11.7v-51.74c0-5.9-5.85-11.73-12.24-11.73h-11.22zm0 27.23v-16.06h11.75v16.06h-11.74zM-143.57-314.44c-6.4 0-12.25 5.88-12.25 11.7v52.3h11.7v-24h11.76c5.86 0 12.25-5.9 12.25-11.72v-16c0-5.88-5.87-11.77-12.26-11.77h-11.2v-.5zm-.54 27.7v-16h11.74v16h-11.75zM-99.8-302.2v40h-12.25v11.75h36.23v-11.74h-11.74v-40h11.74v-11.73h-36.23v11.74h12.25z" fill="#5c85de"/><path d="M-187.82-274.4v-12.27h8l-8 12.26zM-144.04-274.4v-12.27h6.93l-6.94 12.26zM-99.76-294.16v-8h12.27l-12.26 8z" fill="#3367d6"/><path d="M-203.82-320.85v76.8h128v-76.8zM-506.67 184h120v120h-120z" fill-opacity="0"/><path d="M-505.47 241.12l55.92-55.92c1.56-1.56 4.08-1.56 5.64-.12 0 .12.1.12.1.12l55.93 55.92c1.56 1.56 1.56 4.08.12 5.64-.12 0-.12.12-.12.12l-56.04 55.92c-1.57 1.56-3.97 1.56-5.53 0l-56.04-55.92c-1.56-1.56-1.56-4.08-.12-5.64.13 0 .13-.12.13-.12z" fill="url(#n)"/><path d="M-432.08 210.6l-14.1-14.03c-.3-.27-.8-.27-1.08 0l-14.1 14.03c-.25.18-.37.46-.28.73.1.36.45.57.8.48h8.26c.38 0 .7.34.7.74v13.33c0 .4.34.73.76.73h8.8c.4 0 .73-.33.73-.73v-13.33c0-.4.34-.73.73-.73h8.25c.3.07.56-.02.7-.26.22-.3.13-.72-.16-.94zM-480 228.07l-13.98 14.2c-.27.3-.27.7 0 1l13.98 14.05c.15.18.33.24.54.24.42-.03.73-.36.73-.75v-8.2c0-.4.3-.73.72-.73H-464.65c.36-.03.63-.36.6-.75v-8.8l.1-.23c.05-.37-.22-.7-.58-.76h-13.3c-.37.03-.7-.24-.73-.6v-8.13c.15-.4-.06-.86-.46-.98-.43-.15-.85.06-1 .45zM-412.85 257.38l14.2-14.14c.28-.3.28-.7 0-1l-14.2-14.14c-.12-.12-.24-.18-.42-.18-.4-.03-.76.3-.76.7v8.34c0 .4-.3.68-.67.68h-13.48c-.36.03-.64.36-.6.7v8.9c0 .35.3.65.66.65h13.36c.4 0 .73.35.73.74v8.27c0 .16.06.28.15.4.27.32.73.35 1.03.08z" fill="#b4ec36"/><path d="M-428.07 244c.04-8.56-5.4-15.76-13.6-18-9.87-2.78-20.14 3-22.9 12.85-2.78 9.9 3.02 20.13 12.92 22.9v6.37c-2.2 1.1-3.76 2.63-4.9 4.88-2.9 5.54-.72 12.42 4.9 15.3 5.58 2.9 12.46.72 15.36-4.88 2.88-5.6.68-12.47-4.9-15.3v-6.7c7.9-2.37 13.02-9.25 13.13-17.42z" fill="#fff"/><path d="M-435.75 243.88c0 5.96-4.83 10.8-10.8 10.8-5.96 0-10.8-4.84-10.8-10.8 0-5.96 4.84-10.8 10.8-10.8 5.97 0 10.8 4.84 10.8 10.8z" fill="#5ea0ef"/><path d="M-410.67 213.12v-356.48a6 6 0 0 1 6-6h179.18" stroke="#5e5e5e" stroke-width="2" fill="none"/><path d="M-404.96 223.58l-15.65-9.55 16.08-8.78zM-207.06-149.36l-17.43 5.67V-155z" stroke="#5e5e5e" stroke-width="2" fill="#5e5e5e"/><path d="M-481.33 193.12v-469.56a6 6 0 0 1 6-6h249.84" stroke="#5e5e5e" stroke-width="2" fill="none"/><path d="M-481.33 210l-9.17-15.88h18.33zM-207.06-282.44l-17.43 5.66v-11.33z" stroke="#5e5e5e" stroke-width="2" fill="#5e5e5e"/><path d="M-525.54 244h-15.13a6 6 0 0 1-6-6v-622.67a6 6 0 0 1 6-6h320.5" stroke="#5e5e5e" stroke-width="2" fill="none"/><path d="M-508.67 244l-15.87 9.17v-18.34zM-201.72-390.67l-17.44 5.67v-11.33z" stroke="#5e5e5e" stroke-width="2" fill="#5e5e5e"/><path d="M-585.33 621.2H-308v208h-277.33z" fill-opacity="0"/><path d="M-349.6 621.2c11.93 0 21.63 4.17 29.68 12.5 8.04 7.9 11.92 17.67 11.92 29.3v124.4c0 12.06-3.88 22.05-11.93 29.95-8.04 7.9-17.75 11.86-29.67 11.86h-194.13c-11.93 0-21.63-3.95-29.68-11.85-8.05-7.9-11.93-17.9-11.93-29.95V663c0-11.63 3.88-21.4 11.92-29.3 8.03-8.33 17.74-12.5 29.67-12.5h194.13zm-193.02 28.1c-3.6 0-5.83.4-6.38 1.23l95.4 59.5c2.5 1.45 5 2.28 8.04 2.28 2.78 0 5.27-.82 6.94-2.28l95.95-59.5c-.83-.82-1.94-1.23-3.32-1.23H-542.6zm193.02 152.24c9.15 0 13.87-4.57 13.87-14.14V679.65l-88.75 55.33c-6.93 4.37-14.14 6.45-22.2 6.45-7.47 0-14.96-2.08-22.17-6.45l-88.75-55.33V787.4c0 9.57 4.72 14.14 13.87 14.14h194.13z" fill="url(#o)"/><path d="M-542.67-686.67a6 6 0 0 1 6-6h228a6 6 0 0 1 6 6v48a6 6 0 0 1-6 6h-228a6 6 0 0 1-6-6z" fill="none"/><use xlink:href="#p" transform="matrix(1,0,0,1,-542.6666666666667,-692.6666666666666) translate(21.555555555555557 25.6)"/><use xlink:href="#q" transform="matrix(1,0,0,1,-542.6666666666667,-692.6666666666666) translate(1.0666666666666629 64)"/><use xlink:href="#r" transform="matrix(1,0,0,1,-542.6666666666667,-692.6666666666666) translate(125.24444444444444 64)"/><path d="M-272-1034.67a6 6 0 0 1 6-6h228a6 6 0 0 1 6 6v48a6 6 0 0 1-6 6h-228a6 6 0 0 1-6-6z" fill="none"/><use xlink:href="#s" transform="matrix(1,0,0,1,-272.0000000000001,-1040.6666666666665) translate(111.11111111111111 36.4)"/><path d="M15.13-573.33a6 6 0 0 1 6-6h769.34a6 6 0 0 1 6 6v200a6 6 0 0 1-6 6H21.13a6 6 0 0 1-6-6z" fill="none"/><use xlink:href="#t" transform="matrix(1,0,0,1,15.132744159965569,-579.3333333333334) translate(43.37037037037038 117.16666666666667)"/><use xlink:href="#u" transform="matrix(1,0,0,1,15.132744159965569,-579.3333333333334) translate(365.74074074074076 117.16666666666667)"/><use xlink:href="#v" transform="matrix(1,0,0,1,15.132744159965569,-579.3333333333334) translate(561 117.16666666666667)"/><path d="M-408.23-77a6 6 0 0 1 6-6h334.67a6 6 0 0 1 6 6v48a6 6 0 0 1-6 6h-334.67a6 6 0 0 1-6-6z" fill="none"/><use xlink:href="#w" transform="matrix(1,0,0,1,-408.22749687841974,-82.98829826572268) translate(23.666666666666657 38)"/><use xlink:href="#x" transform="matrix(1,0,0,1,-408.22749687841974,-82.98829826572268) translate(223.44444444444446 38)"/><path d="M834.37 820a6 6 0 0 1 6-6h544a6 6 0 0 1 6 6v32a6 6 0 0 1-6 6h-544a6 6 0 0 1-6-6z" fill="none"/><use xlink:href="#y" transform="matrix(1,0,0,1,834.3678542370178,813.9999999999995) translate(99.22222222222223 32)"/><use xlink:href="#z" transform="matrix(1,0,0,1,834.3678542370178,813.9999999999995) translate(239.22222222222223 32)"/><use xlink:href="#A" transform="matrix(1,0,0,1,834.3678542370178,813.9999999999995) translate(363.44444444444446 32)"/><path d="M871.63 1068.2a6 6 0 0 1 6-6h228a6 6 0 0 1 6 6v48a6 6 0 0 1-6 6h-228a6 6 0 0 1-6-6z" fill="none"/><g><use xlink:href="#B" transform="matrix(1,0,0,1,871.6323916153822,1062.198827206627) translate(5.7777777777777715 38)"/><use xlink:href="#C" transform="matrix(1,0,0,1,871.6323916153822,1062.198827206627) translate(150 38)"/></g><path d="M210.32 974.67a6 6 0 0 1 6-6h301.33a6 6 0 0 1 6 6V996a6 6 0 0 1-6 6H216.32a6 6 0 0 1-6-6z" fill="none"/><g><use xlink:href="#D" transform="matrix(1,0,0,1,210.31619715051062,968.6666666666661) translate(2.8333333333333144 32)"/><use xlink:href="#E" transform="matrix(1,0,0,1,210.31619715051062,968.6666666666661) translate(193.61111111111111 32)"/></g><path d="M226.67 1164.25a6 6 0 0 1 6-6h228a6 6 0 0 1 6 6v48a6 6 0 0 1-6 6h-228a6 6 0 0 1-6-6z" fill="none"/><g><use xlink:href="#F" transform="matrix(1,0,0,1,226.66666666670528,1158.2536347869807) translate(11.388888888888886 38)"/><use xlink:href="#G" transform="matrix(1,0,0,1,226.66666666670528,1158.2536347869807) translate(124.38888888888889 38)"/></g><path d="M-737.3 310a6 6 0 0 1 6-6h228a6 6 0 0 1 6 6v48a6 6 0 0 1-6 6h-228a6 6 0 0 1-6-6z" fill="none"/><g><use xlink:href="#H" transform="matrix(1,0,0,1,-737.2928940138364,304) translate(75.55555555555556 32)"/><use xlink:href="#I" transform="matrix(1,0,0,1,-737.2928940138364,304) translate(41.222222222222214 80)"/></g><path d="M985.33 229.33a6 6 0 0 1 6-6h228a6 6 0 0 1 6 6v48a6 6 0 0 1-6 6h-228a6 6 0 0 1-6-6z" fill="none"/><g><use xlink:href="#J" transform="matrix(1,0,0,1,985.333333333333,223.33333333333326) translate(34.499999999999986 38)"/></g><defs><linearGradient gradientUnits="userSpaceOnUse" id="a" x1="871.63" y1="244.35" x2="991.63" y2="244.35"><stop offset="0%" stop-color="#005ba1"/><stop offset="7%" stop-color="#0060a9"/><stop offset="36%" stop-color="#0071c8"/><stop offset="52%" stop-color="#0078d4"/><stop offset="64%" stop-color="#0074cd"/><stop offset="82%" stop-color="#006abb"/><stop offset="100%" stop-color="#005ba1"/></linearGradient><path fill="#282c33" d="M30-248c118-7 216 8 213 122C240-48 200 0 122 0H30v-248zM63-27c89 8 146-16 146-99s-60-101-146-95v194" id="K"/><path fill="#282c33" d="M100-194c62-1 85 37 85 99 1 63-27 99-86 99S16-35 15-95c0-66 28-99 85-99zM99-20c44 1 53-31 53-75 0-43-8-75-51-75s-53 32-53 75 10 74 51 75" id="L"/><path fill="#282c33" d="M96-169c-40 0-48 33-48 73s9 75 48 75c24 0 41-14 43-38l32 2c-6 37-31 61-74 61-59 0-76-41-82-99-10-93 101-131 147-64 4 7 5 14 7 22l-32 3c-4-21-16-35-41-35" id="M"/><path fill="#282c33" d="M84 4C-5 8 30-112 23-190h32v120c0 31 7 50 39 49 72-2 45-101 50-169h31l1 190h-30c-1-10 1-25-2-33-11 22-28 36-60 37" id="N"/><path fill="#282c33" d="M210-169c-67 3-38 105-44 169h-31v-121c0-29-5-50-35-48C34-165 62-65 56 0H25l-1-190h30c1 10-1 24 2 32 10-44 99-50 107 0 11-21 27-35 58-36 85-2 47 119 55 194h-31v-121c0-29-5-49-35-48" id="O"/><path fill="#282c33" d="M100-194c63 0 86 42 84 106H49c0 40 14 67 53 68 26 1 43-12 49-29l28 8c-11 28-37 45-77 45C44 4 14-33 15-96c1-61 26-98 85-98zm52 81c6-60-76-77-97-28-3 7-6 17-6 28h103" id="P"/><path fill="#282c33" d="M117-194c89-4 53 116 60 194h-32v-121c0-31-8-49-39-48C34-167 62-67 57 0H25l-1-190h30c1 10-1 24 2 32 11-22 29-35 61-36" id="Q"/><path fill="#282c33" d="M59-47c-2 24 18 29 38 22v24C64 9 27 4 27-40v-127H5v-23h24l9-43h21v43h35v23H59v120" id="R"/><g id="b"><use transform="matrix(0.1111111111111111,0,0,0.1111111111111111,0,0)" xlink:href="#K"/><use transform="matrix(0.1111111111111111,0,0,0.1111111111111111,28.777777777777775,0)" xlink:href="#L"/><use transform="matrix(0.1111111111111111,0,0,0.1111111111111111,51,0)" xlink:href="#M"/><use transform="matrix(0.1111111111111111,0,0,0.1111111111111111,71,0)" xlink:href="#N"/><use transform="matrix(0.1111111111111111,0,0,0.1111111111111111,93.22222222222223,0)" xlink:href="#O"/><use transform="matrix(0.1111111111111111,0,0,0.1111111111111111,126.44444444444446,0)" xlink:href="#P"/><use transform="matrix(0.1111111111111111,0,0,0.1111111111111111,148.66666666666669,0)" xlink:href="#Q"/><use transform="matrix(0.1111111111111111,0,0,0.1111111111111111,170.8888888888889,0)" xlink:href="#R"/></g><path fill="#282c33" d="M30-248c87 1 191-15 191 75 0 78-77 80-158 76V0H30v-248zm33 125c57 0 124 11 124-50 0-59-68-47-124-48v98" id="S"/><path fill="#282c33" d="M114-163C36-179 61-72 57 0H25l-1-190h30c1 12-1 29 2 39 6-27 23-49 58-41v29" id="T"/><path fill="#282c33" d="M135-143c-3-34-86-38-87 0 15 53 115 12 119 90S17 21 10-45l28-5c4 36 97 45 98 0-10-56-113-15-118-90-4-57 82-63 122-42 12 7 21 19 24 35" id="U"/><path fill="#282c33" d="M24-231v-30h32v30H24zM24 0v-190h32V0H24" id="V"/><path fill="#282c33" d="M177-190C167-65 218 103 67 71c-23-6-38-20-44-43l32-5c15 47 100 32 89-28v-30C133-14 115 1 83 1 29 1 15-40 15-95c0-56 16-97 71-98 29-1 48 16 59 35 1-10 0-23 2-32h30zM94-22c36 0 50-32 50-73 0-42-14-75-50-75-39 0-46 34-46 75s6 73 46 73" id="W"/><g id="c"><use transform="matrix(0.1111111111111111,0,0,0.1111111111111111,0,0)" xlink:href="#S"/><use transform="matrix(0.1111111111111111,0,0,0.1111111111111111,26.666666666666664,0)" xlink:href="#T"/><use transform="matrix(0.1111111111111111,0,0,0.1111111111111111,39.888888888888886,0)" xlink:href="#L"/><use transform="matrix(0.1111111111111111,0,0,0.1111111111111111,62.11111111111111,0)" xlink:href="#M"/><use transform="matrix(0.1111111111111111,0,0,0.1111111111111111,82.11111111111111,0)" xlink:href="#P"/><use transform="matrix(0.1111111111111111,0,0,0.1111111111111111,104.33333333333334,0)" xlink:href="#U"/><use transform="matrix(0.1111111111111111,0,0,0.1111111111111111,124.33333333333336,0)" xlink:href="#U"/><use transform="matrix(0.1111111111111111,0,0,0.1111111111111111,144.33333333333334,0)" xlink:href="#V"/><use transform="matrix(0.1111111111111111,0,0,0.1111111111111111,153.11111111111111,0)" xlink:href="#Q"/><use transform="matrix(0.1111111111111111,0,0,0.1111111111111111,175.33333333333334,0)" xlink:href="#W"/></g><path fill="#282c33" d="M266 0h-40l-56-210L115 0H75L2-248h35L96-30l15-64 43-154h32l59 218 59-218h35" id="X"/><path fill="#282c33" d="M143 0L79-87 56-68V0H24v-261h32v163l83-92h37l-77 82L181 0h-38" id="Y"/><g id="d"><use transform="matrix(0.1111111111111111,0,0,0.1111111111111111,0,0)" xlink:href="#X"/><use transform="matrix(0.1111111111111111,0,0,0.1111111111111111,36.888888888888886,0)" xlink:href="#L"/><use transform="matrix(0.1111111111111111,0,0,0.1111111111111111,59.11111111111111,0)" xlink:href="#T"/><use transform="matrix(0.1111111111111111,0,0,0.1111111111111111,72.33333333333333,0)" xlink:href="#Y"/><use transform="matrix(0.1111111111111111,0,0,0.1111111111111111,92.33333333333333,0)" xlink:href="#P"/><use transform="matrix(0.1111111111111111,0,0,0.1111111111111111,114.55555555555554,0)" xlink:href="#T"/><use transform="matrix(0.1111111111111111,0,0,0.1111111111111111,127.77777777777777,0)" xlink:href="#U"/></g><path fill="#282c33" d="M240 0l2-218c-23 76-54 145-80 218h-23L58-218 59 0H30v-248h44l77 211c21-75 51-140 76-211h43V0h-30" id="Z"/><path fill="#282c33" d="M141-36C126-15 110 5 73 4 37 3 15-17 15-53c-1-64 63-63 125-63 3-35-9-54-41-54-24 1-41 7-42 31l-33-3c5-37 33-52 76-52 45 0 72 20 72 64v82c-1 20 7 32 28 27v20c-31 9-61-2-59-35zM48-53c0 20 12 33 32 33 41-3 63-29 60-74-43 2-92-5-92 41" id="aa"/><g id="e"><use transform="matrix(0.1111111111111111,0,0,0.1111111111111111,0,0)" xlink:href="#Z"/><use transform="matrix(0.1111111111111111,0,0,0.1111111111111111,33.22222222222222,0)" xlink:href="#P"/><use transform="matrix(0.1111111111111111,0,0,0.1111111111111111,55.44444444444444,0)" xlink:href="#U"/><use transform="matrix(0.1111111111111111,0,0,0.1111111111111111,75.44444444444444,0)" xlink:href="#U"/><use transform="matrix(0.1111111111111111,0,0,0.1111111111111111,95.44444444444444,0)" xlink:href="#aa"/><use transform="matrix(0.1111111111111111,0,0,0.1111111111111111,117.66666666666666,0)" xlink:href="#W"/><use transform="matrix(0.1111111111111111,0,0,0.1111111111111111,139.88888888888889,0)" xlink:href="#V"/><use transform="matrix(0.1111111111111111,0,0,0.1111111111111111,148.66666666666666,0)" xlink:href="#Q"/><use transform="matrix(0.1111111111111111,0,0,0.1111111111111111,170.88888888888889,0)" xlink:href="#W"/></g><path fill="#282c33" d="M108 0H70L1-190h34L89-25l56-165h34" id="ab"/><path fill="#282c33" d="M85-194c31 0 48 13 60 33l-1-100h32l1 261h-30c-2-10 0-23-3-31C134-8 116 4 85 4 32 4 16-35 15-94c0-66 23-100 70-100zm9 24c-40 0-46 34-46 75 0 40 6 74 45 74 42 0 51-32 51-76 0-42-9-74-50-73" id="ac"/><g id="f"><use transform="matrix(0.1111111111111111,0,0,0.1111111111111111,0,0)" xlink:href="#S"/><use transform="matrix(0.1111111111111111,0,0,0.1111111111111111,26.666666666666664,0)" xlink:href="#T"/><use transform="matrix(0.1111111111111111,0,0,0.1111111111111111,39.888888888888886,0)" xlink:href="#L"/><use transform="matrix(0.1111111111111111,0,0,0.1111111111111111,62.11111111111111,0)" xlink:href="#ab"/><use transform="matrix(0.1111111111111111,0,0,0.1111111111111111,82.11111111111111,0)" xlink:href="#V"/><use transform="matrix(0.1111111111111111,0,0,0.1111111111111111,90.88888888888889,0)" xlink:href="#ac"/><use transform="matrix(0.1111111111111111,0,0,0.1111111111111111,113.11111111111111,0)" xlink:href="#P"/><use transform="matrix(0.1111111111111111,0,0,0.1111111111111111,135.33333333333334,0)" xlink:href="#T"/></g><radialGradient gradientUnits="userSpaceOnUse" id="g" fx="766.54" fy="795.12" cx="766.54" cy="795.12" r="59.75"><stop offset="18.3%" stop-color="#5ea0ef"/><stop offset="100%" stop-color="#0078d4"/></radialGradient><linearGradient gradientUnits="userSpaceOnUse" id="h" x1="766.86" y1="856.86" x2="766.17" y2="769.93"><stop offset="0%" stop-color="#ccc"/><stop offset="12.3%" stop-color="#d7d7d7"/><stop offset="100%" stop-color="#fcfcfc"/></linearGradient><linearGradient gradientUnits="userSpaceOnUse" id="i" x1="766.37" y1="855.27" x2="766.37" y2="735.3"><stop offset="0%" stop-color="#ccc"/><stop offset="12.3%" stop-color="#d7d7d7"/><stop offset="100%" stop-color="#fcfcfc"/></linearGradient><linearGradient gradientUnits="userSpaceOnUse" id="j" x1="765.16" y1="735.84" x2="766.44" y2="856.25"><stop offset="0%" stop-color="#32d4f5"/><stop offset="32.1%" stop-color="#31d1f3"/><stop offset="100%" stop-color="#198ab3"/></linearGradient><linearGradient gradientUnits="userSpaceOnUse" id="k" x1="766.49" y1="1032.51" x2="766.49" y2="1196.85"><stop offset="22%" stop-color="#32d4f5"/><stop offset="100%" stop-color="#198ab3"/></linearGradient><linearGradient gradientUnits="userSpaceOnUse" id="l" x1="761.39" y1="1041.91" x2="773.63" y2="1203.17"><stop offset="22%" stop-color="#32d4f5"/><stop offset="100%" stop-color="#198ab3"/></linearGradient><linearGradient gradientUnits="userSpaceOnUse" id="m" x1="766.37" y1="1167.04" x2="766.37" y2="1047.2"><stop offset="0%" stop-color="#1988d9"/><stop offset="90%" stop-color="#54aef0"/></linearGradient><linearGradient gradientUnits="userSpaceOnUse" id="n" x1="-446.67" y1="316.32" x2="-446.67" y2="177.21"><stop offset="0%" stop-color="#5e9624"/><stop offset="2%" stop-color="#5f9724"/><stop offset="100%" stop-color="#76bc2d"/></linearGradient><linearGradient gradientUnits="userSpaceOnUse" id="o" x1="-585.33" y1="621.21" x2="-308" y2="829.21"><stop offset="0%" stop-color="#00ceac"/><stop offset="100%" stop-color="#009069"/></linearGradient><path fill="#fff" d="M24 0v-248h195v40H76v63h132v40H76v65h150V0H24" id="ad"/><path fill="#fff" d="M128 0H69L1-190h53L99-40l48-150h52" id="ae"/><path fill="#fff" d="M185-48c-13 30-37 53-82 52C43 2 14-33 14-96s30-98 90-98c62 0 83 45 84 108H66c0 31 8 55 39 56 18 0 30-7 34-22zm-45-69c5-46-57-63-70-21-2 6-4 13-4 21h74" id="af"/><path fill="#fff" d="M135-194c87-1 58 113 63 194h-50c-7-57 23-157-34-157-59 0-34 97-39 157H25l-1-190h47c2 12-1 28 3 38 12-26 28-41 61-42" id="ag"/><path fill="#fff" d="M115-3C79 11 28 4 28-45v-112H4v-33h27l15-45h31v45h36v33H77v99c-1 23 16 31 38 25v30" id="ah"/><path fill="#fff" d="M14-72v-43h91v43H14" id="ai"/><path fill="#fff" d="M24-248c120-7 223 5 221 122C244-46 201 0 124 0H24v-248zM76-40c74 7 117-18 117-86 0-67-45-88-117-82v168" id="aj"/><path fill="#fff" d="M135-150c-39-12-60 13-60 57V0H25l-1-190h47c2 13-1 29 3 40 6-28 27-53 61-41v41" id="ak"/><path fill="#fff" d="M25-224v-37h50v37H25zM25 0v-190h50V0H25" id="al"/><g id="p"><use transform="matrix(0.08888888888888889,0,0,0.08888888888888889,0,0)" xlink:href="#ad"/><use transform="matrix(0.08888888888888889,0,0,0.08888888888888889,21.333333333333336,0)" xlink:href="#ae"/><use transform="matrix(0.08888888888888889,0,0,0.08888888888888889,39.111111111111114,0)" xlink:href="#af"/><use transform="matrix(0.08888888888888889,0,0,0.08888888888888889,56.88888888888889,0)" xlink:href="#ag"/><use transform="matrix(0.08888888888888889,0,0,0.08888888888888889,76.35555555555555,0)" xlink:href="#ah"/><use transform="matrix(0.08888888888888889,0,0,0.08888888888888889,86.93333333333334,0)" xlink:href="#ai"/><use transform="matrix(0.08888888888888889,0,0,0.08888888888888889,97.51111111111112,0)" xlink:href="#aj"/><use transform="matrix(0.08888888888888889,0,0,0.08888888888888889,120.53333333333333,0)" xlink:href="#ak"/><use transform="matrix(0.08888888888888889,0,0,0.08888888888888889,132.9777777777778,0)" xlink:href="#al"/><use transform="matrix(0.08888888888888889,0,0,0.08888888888888889,141.86666666666667,0)" xlink:href="#ae"/><use transform="matrix(0.08888888888888889,0,0,0.08888888888888889,159.64444444444445,0)" xlink:href="#af"/><use transform="matrix(0.08888888888888889,0,0,0.08888888888888889,177.42222222222222,0)" xlink:href="#ag"/></g><path fill="#fff" d="M240-174c0 40-23 61-54 70L253 0h-59l-57-94H76V0H24v-248c93 4 217-23 216 74zM76-134c48-2 112 12 112-38 0-48-66-32-112-35v73" id="am"/><path fill="#fff" d="M190-63c-7 42-38 67-86 67-59 0-84-38-90-98-12-110 154-137 174-36l-49 2c-2-19-15-32-35-32-30 0-35 28-38 64-6 74 65 87 74 30" id="an"/><path fill="#fff" d="M135-194c53 0 70 44 70 98 0 56-19 98-73 100-31 1-45-17-59-34 3 33 2 69 2 105H25l-1-265h48c2 10 0 23 3 31 11-24 29-35 60-35zM114-30c33 0 39-31 40-66 0-38-9-64-40-64-56 0-55 130 0 130" id="ao"/><g id="q"><use transform="matrix(0.08888888888888889,0,0,0.08888888888888889,0,0)" xlink:href="#am"/><use transform="matrix(0.08888888888888889,0,0,0.08888888888888889,23.022222222222222,0)" xlink:href="#af"/><use transform="matrix(0.08888888888888889,0,0,0.08888888888888889,40.8,0)" xlink:href="#an"/><use transform="matrix(0.08888888888888889,0,0,0.08888888888888889,58.57777777777778,0)" xlink:href="#af"/><use transform="matrix(0.08888888888888889,0,0,0.08888888888888889,76.35555555555555,0)" xlink:href="#al"/><use transform="matrix(0.08888888888888889,0,0,0.08888888888888889,85.24444444444444,0)" xlink:href="#ao"/><use transform="matrix(0.08888888888888889,0,0,0.08888888888888889,104.71111111111111,0)" xlink:href="#ah"/></g><path fill="#fff" d="M169-182c-1-43-94-46-97-3 18 66 151 10 154 114 3 95-165 93-204 36-6-8-10-19-12-30l50-8c3 46 112 56 116 5-17-69-150-10-154-114-4-87 153-88 188-35 5 8 8 18 10 28" id="ap"/><path fill="#fff" d="M123 10C108 53 80 86 19 72V37c35 8 53-11 59-39L3-190h52l48 148c12-52 28-100 44-148h51" id="aq"/><path fill="#fff" d="M137-138c1-29-70-34-71-4 15 46 118 7 119 86 1 83-164 76-172 9l43-7c4 19 20 25 44 25 33 8 57-30 24-41C81-84 22-81 20-136c-2-80 154-74 161-7" id="ar"/><path fill="#fff" d="M220-157c-53 9-28 100-34 157h-49v-107c1-27-5-49-29-50C55-147 81-57 75 0H25l-1-190h47c2 12-1 28 3 38 10-53 101-56 108 0 13-22 24-43 59-42 82 1 51 116 57 194h-49v-107c-1-25-5-48-29-50" id="as"/><g id="r"><use transform="matrix(0.08888888888888889,0,0,0.08888888888888889,0,0)" xlink:href="#ap"/><use transform="matrix(0.08888888888888889,0,0,0.08888888888888889,21.333333333333336,0)" xlink:href="#aq"/><use transform="matrix(0.08888888888888889,0,0,0.08888888888888889,39.111111111111114,0)" xlink:href="#ar"/><use transform="matrix(0.08888888888888889,0,0,0.08888888888888889,56.88888888888889,0)" xlink:href="#ah"/><use transform="matrix(0.08888888888888889,0,0,0.08888888888888889,67.46666666666667,0)" xlink:href="#af"/><use transform="matrix(0.08888888888888889,0,0,0.08888888888888889,85.24444444444444,0)" xlink:href="#as"/></g><path fill="#fff" d="M85-194c31 0 48 13 60 33l-1-100h32l1 261h-30c-2-10 0-23-3-31C134-8 116 4 85 4 32 4 16-35 15-94c0-66 23-100 70-100zm9 24c-40 0-46 34-46 75 0 40 6 74 45 74 42 0 51-32 51-76 0-42-9-74-50-73" id="at"/><use transform="matrix(0.08888888888888889,0,0,0.08888888888888889,0,0)" xlink:href="#at" id="s"/><path fill="#282c33" d="M30 0v-248h187v28H63v79h144v27H63v87h162V0H30" id="au"/><path fill="#282c33" d="M16-82v-28h88v28H16" id="av"/><g id="t"><use transform="matrix(0.14814814814814817,0,0,0.14814814814814817,0,0)" xlink:href="#au"/><use transform="matrix(0.14814814814814817,0,0,0.14814814814814817,35.55555555555556,0)" xlink:href="#ab"/><use transform="matrix(0.14814814814814817,0,0,0.14814814814814817,62.22222222222223,0)" xlink:href="#P"/><use transform="matrix(0.14814814814814817,0,0,0.14814814814814817,91.85185185185186,0)" xlink:href="#Q"/><use transform="matrix(0.14814814814814817,0,0,0.14814814814814817,121.4814814814815,0)" xlink:href="#R"/><use transform="matrix(0.14814814814814817,0,0,0.14814814814814817,136.2962962962963,0)" xlink:href="#av"/><use transform="matrix(0.14814814814814817,0,0,0.14814814814814817,153.92592592592592,0)" xlink:href="#K"/><use transform="matrix(0.14814814814814817,0,0,0.14814814814814817,192.29629629629628,0)" xlink:href="#T"/><use transform="matrix(0.14814814814814817,0,0,0.14814814814814817,209.92592592592592,0)" xlink:href="#V"/><use transform="matrix(0.14814814814814817,0,0,0.14814814814814817,221.62962962962962,0)" xlink:href="#ab"/><use transform="matrix(0.14814814814814817,0,0,0.14814814814814817,248.2962962962963,0)" xlink:href="#P"/><use transform="matrix(0.14814814814814817,0,0,0.14814814814814817,277.9259259259259,0)" xlink:href="#Q"/><path fill="#282c33" d="M-2.67 3.7h327.7v3.9H-2.67z"/></g><path fill="#282c33" d="M233-177c-1 41-23 64-60 70L243 0h-38l-65-103H63V0H30v-248c88 3 205-21 203 71zM63-129c60-2 137 13 137-47 0-61-80-42-137-45v92" id="aw"/><path fill="#282c33" d="M115-194c55 1 70 41 70 98S169 2 115 4C84 4 66-9 55-30l1 105H24l-1-265h31l2 30c10-21 28-34 59-34zm-8 174c40 0 45-34 45-75s-6-73-45-74c-42 0-51 32-51 76 0 43 10 73 51 73" id="ax"/><g id="u"><use transform="matrix(0.14814814814814817,0,0,0.14814814814814817,0,0)" xlink:href="#aw"/><use transform="matrix(0.14814814814814817,0,0,0.14814814814814817,38.370370370370374,0)" xlink:href="#P"/><use transform="matrix(0.14814814814814817,0,0,0.14814814814814817,68,0)" xlink:href="#M"/><use transform="matrix(0.14814814814814817,0,0,0.14814814814814817,94.66666666666669,0)" xlink:href="#P"/><use transform="matrix(0.14814814814814817,0,0,0.14814814814814817,124.29629629629632,0)" xlink:href="#V"/><use transform="matrix(0.14814814814814817,0,0,0.14814814814814817,136,0)" xlink:href="#ax"/><use transform="matrix(0.14814814814814817,0,0,0.14814814814814817,165.62962962962962,0)" xlink:href="#R"/><path fill="#282c33" d="M-2.67 3.7h200.6v3.9H-2.68z"/></g><path fill="#282c33" d="M185-189c-5-48-123-54-124 2 14 75 158 14 163 119 3 78-121 87-175 55-17-10-28-26-33-46l33-7c5 56 141 63 141-1 0-78-155-14-162-118-5-82 145-84 179-34 5 7 8 16 11 25" id="ay"/><path fill="#282c33" d="M179-190L93 31C79 59 56 82 12 73V49c39 6 53-20 64-50L1-190h34L92-34l54-156h33" id="az"/><g id="v"><use transform="matrix(0.14814814814814817,0,0,0.14814814814814817,0,0)" xlink:href="#ay"/><use transform="matrix(0.14814814814814817,0,0,0.14814814814814817,35.55555555555556,0)" xlink:href="#az"/><use transform="matrix(0.14814814814814817,0,0,0.14814814814814817,62.22222222222223,0)" xlink:href="#U"/><use transform="matrix(0.14814814814814817,0,0,0.14814814814814817,88.8888888888889,0)" xlink:href="#R"/><use transform="matrix(0.14814814814814817,0,0,0.14814814814814817,103.70370370370372,0)" xlink:href="#P"/><use transform="matrix(0.14814814814814817,0,0,0.14814814814814817,133.33333333333337,0)" xlink:href="#O"/><path fill="#282c33" d="M-2.67 3.7H180.3v3.9H-2.68z"/></g><path fill="#282c33" d="M33 0v-248h34V0H33" id="aA"/><g id="w"><use transform="matrix(0.1111111111111111,0,0,0.1111111111111111,0,0)" xlink:href="#aA"/><use transform="matrix(0.1111111111111111,0,0,0.1111111111111111,11.11111111111111,0)" xlink:href="#Q"/><use transform="matrix(0.1111111111111111,0,0,0.1111111111111111,33.33333333333333,0)" xlink:href="#R"/><use transform="matrix(0.1111111111111111,0,0,0.1111111111111111,44.44444444444444,0)" xlink:href="#P"/><use transform="matrix(0.1111111111111111,0,0,0.1111111111111111,66.66666666666666,0)" xlink:href="#W"/><use transform="matrix(0.1111111111111111,0,0,0.1111111111111111,88.88888888888889,0)" xlink:href="#T"/><use transform="matrix(0.1111111111111111,0,0,0.1111111111111111,102.11111111111111,0)" xlink:href="#aa"/><use transform="matrix(0.1111111111111111,0,0,0.1111111111111111,124.33333333333336,0)" xlink:href="#R"/><use transform="matrix(0.1111111111111111,0,0,0.1111111111111111,135.44444444444446,0)" xlink:href="#V"/><use transform="matrix(0.1111111111111111,0,0,0.1111111111111111,144.22222222222223,0)" xlink:href="#L"/><use transform="matrix(0.1111111111111111,0,0,0.1111111111111111,166.44444444444446,0)" xlink:href="#Q"/></g><path fill="#282c33" d="M30 0v-248h33v221h125V0H30" id="aB"/><g id="x"><use transform="matrix(0.1111111111111111,0,0,0.1111111111111111,0,0)" xlink:href="#aB"/><use transform="matrix(0.1111111111111111,0,0,0.1111111111111111,22.22222222222222,0)" xlink:href="#aa"/><use transform="matrix(0.1111111111111111,0,0,0.1111111111111111,44.44444444444444,0)" xlink:href="#az"/><use transform="matrix(0.1111111111111111,0,0,0.1111111111111111,64.44444444444444,0)" xlink:href="#P"/><use transform="matrix(0.1111111111111111,0,0,0.1111111111111111,86.66666666666666,0)" xlink:href="#T"/></g><path d="M30 0v-248h33v221h125V0H30" id="aC"/><path d="M100-194c63 0 86 42 84 106H49c0 40 14 67 53 68 26 1 43-12 49-29l28 8c-11 28-37 45-77 45C44 4 14-33 15-96c1-61 26-98 85-98zm52 81c6-60-76-77-97-28-3 7-6 17-6 28h103" id="aD"/><path d="M177-190C167-65 218 103 67 71c-23-6-38-20-44-43l32-5c15 47 100 32 89-28v-30C133-14 115 1 83 1 29 1 15-40 15-95c0-56 16-97 71-98 29-1 48 16 59 35 1-10 0-23 2-32h30zM94-22c36 0 50-32 50-73 0-42-14-75-50-75-39 0-46 34-46 75s6 73 46 73" id="aE"/><path d="M141-36C126-15 110 5 73 4 37 3 15-17 15-53c-1-64 63-63 125-63 3-35-9-54-41-54-24 1-41 7-42 31l-33-3c5-37 33-52 76-52 45 0 72 20 72 64v82c-1 20 7 32 28 27v20c-31 9-61-2-59-35zM48-53c0 20 12 33 32 33 41-3 63-29 60-74-43 2-92-5-92 41" id="aF"/><path d="M96-169c-40 0-48 33-48 73s9 75 48 75c24 0 41-14 43-38l32 2c-6 37-31 61-74 61-59 0-76-41-82-99-10-93 101-131 147-64 4 7 5 14 7 22l-32 3c-4-21-16-35-41-35" id="aG"/><path d="M179-190L93 31C79 59 56 82 12 73V49c39 6 53-20 64-50L1-190h34L92-34l54-156h33" id="aH"/><g id="y"><use transform="matrix(0.1111111111111111,0,0,0.1111111111111111,0,0)" xlink:href="#aC"/><use transform="matrix(0.1111111111111111,0,0,0.1111111111111111,22.22222222222222,0)" xlink:href="#aD"/><use transform="matrix(0.1111111111111111,0,0,0.1111111111111111,44.44444444444444,0)" xlink:href="#aE"/><use transform="matrix(0.1111111111111111,0,0,0.1111111111111111,66.66666666666666,0)" xlink:href="#aF"/><use transform="matrix(0.1111111111111111,0,0,0.1111111111111111,88.88888888888889,0)" xlink:href="#aG"/><use transform="matrix(0.1111111111111111,0,0,0.1111111111111111,108.88888888888889,0)" xlink:href="#aH"/></g><path d="M205 0l-28-72H64L36 0H1l101-248h38L239 0h-34zm-38-99l-47-123c-12 45-31 82-46 123h93" id="aI"/><path d="M85-194c31 0 48 13 60 33l-1-100h32l1 261h-30c-2-10 0-23-3-31C134-8 116 4 85 4 32 4 16-35 15-94c0-66 23-100 70-100zm9 24c-40 0-46 34-46 75 0 40 6 74 45 74 42 0 51-32 51-76 0-42-9-74-50-73" id="aJ"/><path d="M210-169c-67 3-38 105-44 169h-31v-121c0-29-5-50-35-48C34-165 62-65 56 0H25l-1-190h30c1 10-1 24 2 32 10-44 99-50 107 0 11-21 27-35 58-36 85-2 47 119 55 194h-31v-121c0-29-5-49-35-48" id="aK"/><path d="M24-231v-30h32v30H24zM24 0v-190h32V0H24" id="aL"/><path d="M117-194c89-4 53 116 60 194h-32v-121c0-31-8-49-39-48C34-167 62-67 57 0H25l-1-190h30c1 10-1 24 2 32 11-22 29-35 61-36" id="aM"/><g id="z"><use transform="matrix(0.1111111111111111,0,0,0.1111111111111111,0,0)" xlink:href="#aI"/><use transform="matrix(0.1111111111111111,0,0,0.1111111111111111,26.666666666666664,0)" xlink:href="#aJ"/><use transform="matrix(0.1111111111111111,0,0,0.1111111111111111,48.888888888888886,0)" xlink:href="#aK"/><use transform="matrix(0.1111111111111111,0,0,0.1111111111111111,82.11111111111111,0)" xlink:href="#aL"/><use transform="matrix(0.1111111111111111,0,0,0.1111111111111111,90.88888888888889,0)" xlink:href="#aM"/></g><path d="M30-248c87 1 191-15 191 75 0 78-77 80-158 76V0H30v-248zm33 125c57 0 124 11 124-50 0-59-68-47-124-48v98" id="aN"/><g id="A"><use transform="matrix(0.1111111111111111,0,0,0.1111111111111111,0,0)" xlink:href="#aN"/><use transform="matrix(0.1111111111111111,0,0,0.1111111111111111,26.666666666666664,0)" xlink:href="#aF"/><use transform="matrix(0.1111111111111111,0,0,0.1111111111111111,48.888888888888886,0)" xlink:href="#aE"/><use transform="matrix(0.1111111111111111,0,0,0.1111111111111111,71.11111111111111,0)" xlink:href="#aD"/></g><path d="M33 0v-248h34V0H33" id="aO"/><path d="M59-47c-2 24 18 29 38 22v24C64 9 27 4 27-40v-127H5v-23h24l9-43h21v43h35v23H59v120" id="aP"/><path d="M114-163C36-179 61-72 57 0H25l-1-190h30c1 12-1 29 2 39 6-27 23-49 58-41v29" id="aQ"/><path d="M24 0v-261h32V0H24" id="aR"/><g id="B"><use transform="matrix(0.1111111111111111,0,0,0.1111111111111111,0,0)" xlink:href="#aO"/><use transform="matrix(0.1111111111111111,0,0,0.1111111111111111,11.11111111111111,0)" xlink:href="#aM"/><use transform="matrix(0.1111111111111111,0,0,0.1111111111111111,33.33333333333333,0)" xlink:href="#aP"/><use transform="matrix(0.1111111111111111,0,0,0.1111111111111111,44.44444444444444,0)" xlink:href="#aD"/><use transform="matrix(0.1111111111111111,0,0,0.1111111111111111,66.66666666666666,0)" xlink:href="#aQ"/><use transform="matrix(0.1111111111111111,0,0,0.1111111111111111,79.88888888888889,0)" xlink:href="#aM"/><use transform="matrix(0.1111111111111111,0,0,0.1111111111111111,102.11111111111111,0)" xlink:href="#aF"/><use transform="matrix(0.1111111111111111,0,0,0.1111111111111111,124.33333333333336,0)" xlink:href="#aR"/></g><path d="M232-93c-1 65-40 97-104 97C67 4 28-28 28-90v-158h33c8 89-33 224 67 224 102 0 64-133 71-224h33v155" id="aS"/><path d="M135-143c-3-34-86-38-87 0 15 53 115 12 119 90S17 21 10-45l28-5c4 36 97 45 98 0-10-56-113-15-118-90-4-57 82-63 122-42 12 7 21 19 24 35" id="aT"/><g id="C"><use transform="matrix(0.1111111111111111,0,0,0.1111111111111111,0,0)" xlink:href="#aS"/><use transform="matrix(0.1111111111111111,0,0,0.1111111111111111,28.777777777777775,0)" xlink:href="#aT"/><use transform="matrix(0.1111111111111111,0,0,0.1111111111111111,48.77777777777777,0)" xlink:href="#aD"/><use transform="matrix(0.1111111111111111,0,0,0.1111111111111111,71,0)" xlink:href="#aQ"/></g><path d="M233-177c-1 41-23 64-60 70L243 0h-38l-65-103H63V0H30v-248c88 3 205-21 203 71zM63-129c60-2 137 13 137-47 0-61-80-42-137-45v92" id="aU"/><path d="M115-194c53 0 69 39 70 98 0 66-23 100-70 100C84 3 66-7 56-30L54 0H23l1-261h32v101c10-23 28-34 59-34zm-8 174c40 0 45-34 45-75 0-40-5-75-45-74-42 0-51 32-51 76 0 43 10 73 51 73" id="aV"/><path d="M240 0l2-218c-23 76-54 145-80 218h-23L58-218 59 0H30v-248h44l77 211c21-75 51-140 76-211h43V0h-30" id="aW"/><path d="M140-251c81 0 123 46 123 126C263-53 228-8 163 1c7 30 30 48 69 40v23c-55 16-95-15-103-61C56-3 17-48 17-125c0-80 42-126 123-126zm0 227c63 0 89-41 89-101s-29-99-89-99c-61 0-89 39-89 99S79-25 140-24" id="aX"/><g id="D"><use transform="matrix(0.1111111111111111,0,0,0.1111111111111111,0,0)" xlink:href="#aU"/><use transform="matrix(0.1111111111111111,0,0,0.1111111111111111,28.777777777777775,0)" xlink:href="#aF"/><use transform="matrix(0.1111111111111111,0,0,0.1111111111111111,51,0)" xlink:href="#aV"/><use transform="matrix(0.1111111111111111,0,0,0.1111111111111111,73.22222222222223,0)" xlink:href="#aV"/><use transform="matrix(0.1111111111111111,0,0,0.1111111111111111,95.44444444444446,0)" xlink:href="#aL"/><use transform="matrix(0.1111111111111111,0,0,0.1111111111111111,104.22222222222223,0)" xlink:href="#aP"/><use transform="matrix(0.1111111111111111,0,0,0.1111111111111111,115.33333333333336,0)" xlink:href="#aW"/><use transform="matrix(0.1111111111111111,0,0,0.1111111111111111,148.55555555555557,0)" xlink:href="#aX"/></g><path d="M160-131c35 5 61 23 61 61C221 17 115-2 30 0v-248c76 3 177-17 177 60 0 33-19 50-47 57zm-97-11c50-1 110 9 110-42 0-47-63-36-110-37v79zm0 115c55-2 124 14 124-45 0-56-70-42-124-44v89" id="aY"/><path d="M100-194c62-1 85 37 85 99 1 63-27 99-86 99S16-35 15-95c0-66 28-99 85-99zM99-20c44 1 53-31 53-75 0-43-8-75-51-75s-53 32-53 75 10 74 51 75" id="aZ"/><path d="M143 0L79-87 56-68V0H24v-261h32v163l83-92h37l-77 82L181 0h-38" id="ba"/><g id="E"><use transform="matrix(0.1111111111111111,0,0,0.1111111111111111,0,0)" xlink:href="#aY"/><use transform="matrix(0.1111111111111111,0,0,0.1111111111111111,26.666666666666664,0)" xlink:href="#aQ"/><use transform="matrix(0.1111111111111111,0,0,0.1111111111111111,39.888888888888886,0)" xlink:href="#aZ"/><use transform="matrix(0.1111111111111111,0,0,0.1111111111111111,62.11111111111111,0)" xlink:href="#ba"/><use transform="matrix(0.1111111111111111,0,0,0.1111111111111111,82.11111111111111,0)" xlink:href="#aD"/><use transform="matrix(0.1111111111111111,0,0,0.1111111111111111,104.33333333333334,0)" xlink:href="#aQ"/></g><path fill="#282c33" d="M212-179c-10-28-35-45-73-45-59 0-87 40-87 99 0 60 29 101 89 101 43 0 62-24 78-52l27 14C228-24 195 4 139 4 59 4 22-46 18-125c-6-104 99-153 187-111 19 9 31 26 39 46" id="bb"/><path fill="#282c33" d="M24 0v-261h32V0H24" id="bc"/><g id="F"><use transform="matrix(0.1111111111111111,0,0,0.1111111111111111,0,0)" xlink:href="#bb"/><use transform="matrix(0.1111111111111111,0,0,0.1111111111111111,28.777777777777775,0)" xlink:href="#bc"/><use transform="matrix(0.1111111111111111,0,0,0.1111111111111111,37.55555555555555,0)" xlink:href="#V"/><use transform="matrix(0.1111111111111111,0,0,0.1111111111111111,46.33333333333333,0)" xlink:href="#P"/><use transform="matrix(0.1111111111111111,0,0,0.1111111111111111,68.55555555555554,0)" xlink:href="#Q"/><use transform="matrix(0.1111111111111111,0,0,0.1111111111111111,90.77777777777777,0)" xlink:href="#R"/></g><path fill="#282c33" d="M232-93c-1 65-40 97-104 97C67 4 28-28 28-90v-158h33c8 89-33 224 67 224 102 0 64-133 71-224h33v155" id="bd"/><g id="G"><use transform="matrix(0.1111111111111111,0,0,0.1111111111111111,0,0)" xlink:href="#bd"/><use transform="matrix(0.1111111111111111,0,0,0.1111111111111111,28.777777777777775,0)" xlink:href="#U"/><use transform="matrix(0.1111111111111111,0,0,0.1111111111111111,48.77777777777777,0)" xlink:href="#P"/><use transform="matrix(0.1111111111111111,0,0,0.1111111111111111,71,0)" xlink:href="#T"/><use transform="matrix(0.1111111111111111,0,0,0.1111111111111111,84.22222222222223,0)" xlink:href="#U"/></g><g id="H"><use transform="matrix(0.1111111111111111,0,0,0.1111111111111111,0,0)" xlink:href="#aB"/><use transform="matrix(0.1111111111111111,0,0,0.1111111111111111,22.22222222222222,0)" xlink:href="#L"/><use transform="matrix(0.1111111111111111,0,0,0.1111111111111111,44.44444444444444,0)" xlink:href="#aa"/><use transform="matrix(0.1111111111111111,0,0,0.1111111111111111,66.66666666666666,0)" xlink:href="#ac"/></g><path fill="#282c33" d="M160-131c35 5 61 23 61 61C221 17 115-2 30 0v-248c76 3 177-17 177 60 0 33-19 50-47 57zm-97-11c50-1 110 9 110-42 0-47-63-36-110-37v79zm0 115c55-2 124 14 124-45 0-56-70-42-124-44v89" id="be"/><g id="I"><use transform="matrix(0.1111111111111111,0,0,0.1111111111111111,0,0)" xlink:href="#be"/><use transform="matrix(0.1111111111111111,0,0,0.1111111111111111,26.666666666666664,0)" xlink:href="#aa"/><use transform="matrix(0.1111111111111111,0,0,0.1111111111111111,48.888888888888886,0)" xlink:href="#bc"/><use transform="matrix(0.1111111111111111,0,0,0.1111111111111111,57.666666666666664,0)" xlink:href="#aa"/><use transform="matrix(0.1111111111111111,0,0,0.1111111111111111,79.88888888888889,0)" xlink:href="#Q"/><use transform="matrix(0.1111111111111111,0,0,0.1111111111111111,102.11111111111111,0)" xlink:href="#M"/><use transform="matrix(0.1111111111111111,0,0,0.1111111111111111,122.1111111111111,0)" xlink:href="#P"/><use transform="matrix(0.1111111111111111,0,0,0.1111111111111111,144.33333333333334,0)" xlink:href="#T"/></g><path d="M30-248c118-7 216 8 213 122C240-48 200 0 122 0H30v-248zM63-27c89 8 146-16 146-99s-60-101-146-95v194" id="bf"/><g id="J"><use transform="matrix(0.1111111111111111,0,0,0.1111111111111111,0,0)" xlink:href="#bf"/><use transform="matrix(0.1111111111111111,0,0,0.1111111111111111,28.777777777777775,0)" xlink:href="#aF"/><use transform="matrix(0.1111111111111111,0,0,0.1111111111111111,51,0)" xlink:href="#aP"/><use transform="matrix(0.1111111111111111,0,0,0.1111111111111111,62.11111111111112,0)" xlink:href="#aF"/><use transform="matrix(0.1111111111111111,0,0,0.1111111111111111,84.33333333333334,0)" xlink:href="#aV"/><use transform="matrix(0.1111111111111111,0,0,0.1111111111111111,106.55555555555557,0)" xlink:href="#aF"/><use transform="matrix(0.1111111111111111,0,0,0.1111111111111111,128.7777777777778,0)" xlink:href="#aT"/><use transform="matrix(0.1111111111111111,0,0,0.1111111111111111,148.7777777777778,0)" xlink:href="#aD"/></g></defs></g></svg>