<svg xmlns="http://www.w3.org/2000/svg" xmlns:xlink="http://www.w3.org/1999/xlink" xmlns:lucid="lucid" width="2359.96" height="2387.33"><g transform="translate(873.9595606805032 1040.6666666666665)" lucid:page-tab-id="0_0"><path d="M-1000-1500h2500v3000h-2500z" fill="#fff"/><path d="M-871.96-655.33a12 12 0 0 1 12-12H1472a12 12 0 0 1 12 12v1988a12 12 0 0 1-12 12H-859.96a12 12 0 0 1-12-12z" stroke="#000" stroke-width="4" fill="#fff"/><path d="M-195.84-276.5c-5.85 0-12.24 5.85-12.24 11.76V-213h12.25v-24h11.75v24h11.7v-51.74c0-5.9-5.85-11.75-12.24-11.75h-11.22zm0 27.25v-16.06h11.75v16.05h-11.74zM-151.57-277c-6.4 0-12.25 5.9-12.25 11.7v52.3h11.7v-24h11.76c5.86 0 12.25-5.9 12.25-11.7v-16c0-5.9-5.87-11.8-12.26-11.8h-11.2v-.5zm-.54 27.7v-16h11.74v16h-11.75zM-107.8-264.74v40h-12.25V-213h36.23v-11.75h-11.74v-40h11.74v-11.74h-36.23v11.76h12.25z" fill="#5c85de"/><path d="M-195.82-236.96v-12.26h8l-8 12.26zM-152.04-236.96v-12.26h6.93l-6.94 12.26zM-107.76-256.7v-8h12.27l-12.26 8z" fill="#3367d6"/><path d="M-211.82-283.4v76.8h128v-76.8z" fill-opacity="0"/><path d="M288.42 532.55c-10.02 9.74-15.83 26.5-15.83 44.62 0 18.12 5.8 34.88 15.82 44.62 1.62 1.34 2.26 2.96 2.26 4.86 0 1.9-.64 3.78-2.26 5.13-1.3 1.34-3.23 1.88-5.17 1.88s-3.55-.54-5.17-1.9c-21.65-20.8-70.76-20.8-92.4 0-2.92 2.72-7.44 2.72-10.35 0-1.62-1.34-2.26-3.23-2.26-5.13s.64-3.5 2.26-4.86c10.02-9.75 16.16-26.5 16.16-44.63 0-18.12-6.15-34.88-16.17-44.62-1.62-1.35-2.26-3.24-2.26-4.86 0-1.9.64-3.8 2.26-5.15 2.9-2.7 7.43-2.7 10.34 0 21.65 20.82 70.76 20.82 92.4 0 2.92-2.7 7.44-2.7 10.35 0 1.62 1.35 2.26 3.24 2.26 5.14 0 1.6-.64 3.5-2.26 4.85zm-152.5 51.65c-1.63 15.95-15.52 28.4-32.65 28.4-18.1 0-32.95-14.34-32.95-31.9 0-17.6 14.86-31.92 32.95-31.92 14.55 0 26.5 8.92 31.02 21.36h25.2l-7.1-10.27 12.27-7.85 14.54 21.37c1.62 2.42 1.62 5.4 0 7.83l-14.53 21.1-12.28-7.85 7.1-10.28zm4.2-70.85c-18.1 0-32.97-14.06-32.97-31.63 0-17.58 14.86-31.9 32.96-31.9s32.97 14.32 32.97 31.9c0 17.57-14.87 31.63-32.96 31.63zm0 127.37c18.08 0 32.95 14.33 32.95 31.9 0 17.58-14.87 31.9-32.96 31.9-18.08 0-32.95-14.32-32.95-31.9 0-17.57 14.86-31.9 32.96-31.9zm176.1-127.37c-18.1 0-32.97-14.06-32.97-31.63 0-17.58 14.87-31.9 32.96-31.9 18.43 0 33.3 14.32 33.3 31.9 0 17.57-14.87 31.63-33.3 31.63zm44.26 35.43c18.1 0 32.95 14.33 32.95 31.9 0 17.58-14.86 31.9-32.95 31.9-18.42 0-33.3-14.32-33.3-31.9 0-17.57 14.88-31.9 33.3-31.9zm-44.27 91.94c18.43 0 33.3 14.33 33.3 31.9 0 17.58-14.87 31.9-33.3 31.9-18.08 0-32.95-14.32-32.95-31.9 0-17.57 14.87-31.9 32.96-31.9zm-53.63-33.8c-3.23-8.93-4.84-19.2-4.84-29.75 0-10.54 1.6-20.82 4.84-29.74-19.06 6.22-42.33 6.22-61.4 0 3.24 8.92 4.86 19.2 4.86 29.74 0 10.55-1.62 20.82-4.85 29.75 9.7-3.25 20.03-4.6 30.7-4.6 10.66 0 21 1.35 30.7 4.6zm17.77 80.85l5.82 12.7c-18.1 7.85-37.16 11.9-57.2 11.9-20.03 0-39.4-4.05-57.5-11.9l5.8-12.7c32.64 13.8 70.45 13.8 103.08 0zm-103.07-221.2l-5.82-12.97c36.2-15.42 78.52-15.42 114.7 0l-5.8 12.97c-32.64-14.06-70.45-14.06-103.08 0zM316.2 690.2c10.35 0 18.43-7.84 18.43-17.58 0-9.73-8.08-17.57-18.42-17.57-10 0-18.08 7.84-18.08 17.57 0 9.74 8.07 17.58 18.1 17.58zm0-226.33c-10 0-18.08 8.1-18.08 17.85 0 9.73 8.07 17.57 18.1 17.57 10.33 0 18.4-7.85 18.4-17.58 0-9.74-8.07-17.85-18.4-17.85zm44.28 134.4c10 0 18.4-7.85 18.4-17.58 0-9.75-8.4-17.6-18.4-17.6-10.34 0-18.42 7.85-18.42 17.6 0 9.72 8.08 17.56 18.42 17.56zM84.86 580.68c0 9.72 8.4 17.56 18.4 17.56 10.35 0 18.43-7.84 18.43-17.57 0-9.75-8.1-17.6-18.43-17.6-10 0-18.4 7.85-18.4 17.6zm55.25-116.83c-10 0-18.4 8.1-18.4 17.85 0 9.73 8.4 17.57 18.4 17.57 10.03 0 18.43-7.85 18.43-17.58 0-9.74-8.4-17.85-18.42-17.85zm0 226.33c10.03 0 18.43-7.84 18.43-17.58 0-9.73-8.4-17.57-18.42-17.57-10 0-18.4 7.84-18.4 17.57 0 9.74 8.4 17.58 18.4 17.58zM292 594.48l7.1-10.28h-15.83v-14.06h15.83l-7.1-10.27 11.95-7.85 14.86 21.1c1.6 2.43 1.6 5.67 0 7.84l-14.87 21.36zm-184.18-50.3l-13.9-3.78c2.9-10.82 7.44-21.1 13.25-30.83l12.93 7.03c-5.17 8.65-9.37 17.85-12.28 27.58zm230.06-27.58l12.6-7.03c5.82 9.73 10.34 20 13.57 30.82l-14.22 3.78c-2.9-9.73-6.77-18.93-11.94-27.58zm-230.4 128.7c-4.5-7.3-8.06-15.13-10.97-23.24l13.56-4.87c2.9 7.3 6.14 14.32 10.34 21.08zm240.1-28.1l13.9 4.86c-2.92 7.84-6.8 15.4-11 22.7l-12.6-7.02c3.88-6.5 7.1-13.52 9.7-20.55z" stroke="#000" stroke-opacity="0" fill="#b0084d"/><path d="M360.9 578.23c0 70.07-59.06 126.95-131.84 126.95-72.77 0-131.83-56.88-131.83-126.95 0-70.08 59.06-126.96 131.83-126.96 72.78 0 131.84 56.88 131.84 126.96z" stroke="#000" stroke-opacity="0" fill-opacity="0"/><path d="M1244.15-352.48c-24.57 0-44.52-7.06-44.52-16.26v86c0 8.88 19.6 16.14 43.9 16.24h.62c24.58 0 44.52-7.05 44.52-16.25v-86c0 9-19.94 16.27-44.52 16.27z" stroke="#000" stroke-opacity="0" fill="url(#a)"/><path d="M1288.67-368.74c0 8.94-19.94 16.2-44.52 16.2-24.57 0-44.52-7.25-44.52-16.2 0-8.94 19.95-16.2 44.52-16.2 24.58 0 44.52 7.03 44.52 16.2" stroke="#000" stroke-opacity="0" fill="#e8e8e8"/><path d="M1278.2-370.1c0 5.68-15.3 10.25-34.1 10.25-18.77 0-33.94-4.57-33.94-10.25 0-5.7 15.17-10.26 33.95-10.26 18.8 0 34.1 4.63 34.1 10.25" stroke="#000" stroke-opacity="0" fill="#50e6ff"/><path d="M1244.1-367.63c-9.6-.2-17.77.97-26.95 3.87 9.13 3.05 17.34 4.27 27 4 9.67.27 17.88-.95 27-4-9.23-2.9-17.44-4.08-27.05-3.87z" stroke="#000" stroke-opacity="0" fill="#198ab3"/><path d="M1271.42-310.26v-23.8h-6.5v29.15h17.26v-5.36zm-50.14-11.76c-1.37-.56-2.45-1.23-3.54-2.2-.5-.66-.72-1.4-.58-2.22 0-.93.37-1.68 1.16-2.2.87-.6 1.8-.82 2.9-.78 2.6-.07 4.9.56 7 2.05v-6.07c-2.32-.85-4.48-1.2-7-1.1-3.12-.27-5.86.5-8.4 2.44-1.94 1.6-2.95 3.8-2.88 6.33 0 3.6 2.24 6.43 7 8.55 1.6.7 2.9 1.45 4.27 2.53.73.57 1.17 1.35 1.17 2.24 0 .93-.44 1.68-1.16 2.2-.93.63-1.94.93-3.1.85-3.1.03-5.7-1.05-7.94-3.17v6.55c2.45 1.2 4.76 1.67 7.5 1.6 3.04.15 5.72-.56 8.24-2.23 2.1-1.6 3.18-3.87 3.04-6.5.07-1.87-.5-3.5-1.73-4.92-1.73-1.83-3.53-3.02-5.92-3.95zm36.48 11.05c1.66-2.83 2.4-5.65 2.32-8.93.07-2.82-.5-5.24-1.74-7.77-1.15-2.3-2.67-3.98-4.9-5.28-2.25-1.27-4.42-1.83-7.02-1.83-2.82-.03-5.2.56-7.66 1.9-2.3 1.34-3.9 3.05-5.13 5.43-1.3 2.64-1.87 5.17-1.8 8.1-.07 2.7.5 5 1.66 7.4 1.15 2.28 2.6 3.96 4.76 5.3 2.24 1.33 4.4 1.97 7 2.04l6 7.02h8.3l-8.37-7.8c2.88-1.1 5.05-2.9 6.56-5.6zm-6.5-1.82c-2.53 2.98-6.93 3.36-9.9.86-.28-.26-.57-.52-.86-.85-1.52-2.1-2.17-4.42-1.95-7.02-.22-2.64.5-4.95 2.02-7.07 1.37-1.78 3.25-2.7 5.5-2.6 2.16-.07 3.96.86 5.26 2.6 1.45 2.2 2.03 4.44 1.88 7.08.3 2.68-.35 5.06-1.94 7.25z" stroke="#000" stroke-opacity="0" fill="#f2f2f2"/><path d="M1300.07-265.2l1.7-5.57 3.27-1.9 5.7 2.53 3.65-3.75v-.4l-2.6-5.02 1.54-3.53 5.65-2.04h.63v-5.15h-.68l-5.6-1.67-1.83-3.26 2.4-5.74-3.68-3.62h-.4l-5.03 2.53-3.4-2.1-2.24-6.28h-5.2v.77l-1.7 5.56-3.54 1.53-6.12-2.8-3.6 3.75.37.67 2.64 5.25-1.36 3.57-6.6 2.04v5.2h.77l5.53 1.72 1.55 3.58-2.74 6.06 3.74 3.66.64-.36 5.2-2.67 3.55 1.4 2.37 6.3h5.16zm-8.44-16.66c-2.9-2.9-2.96-7.64-.1-10.58 2.9-3 7.63-3.03 10.55-.14 2.96 2.9 3 7.65.13 10.63-2.9 2.94-7.6 3-10.57.1z" stroke="#000" stroke-opacity="0" fill="#949494"/><path d="M807.88 282.03v64.6a6 6 0 0 1-6 6h-564a6 6 0 0 0-6 6v61.8" stroke="#5e5e5e" stroke-width="2" fill="none"/><path d="M807.88 265.15l9.16 15.88H798.7zM231.88 438.86l-5.67-17.44h11.34z" stroke="#5e5e5e" stroke-width="2" fill="#5e5e5e"/><path d="M1178.26 818.9H221a6 6 0 0 1-6-6v-79.57" stroke="#5e5e5e" stroke-width="2" fill="none"/><path d="M1179.1 818.1l.37 1.78h-1.23v-1.95h.83z" stroke="#5e5e5e" stroke-width=".05" fill="#5e5e5e"/><path d="M215 714.9l5.66 17.43h-11.33z" stroke="#5e5e5e" stroke-width="2" fill="#5e5e5e"/><path d="M886.8 73.2h-62.4l-14.25 33.56H730.4v31.93h-25.84l25.83 102.08h170.66V73.2zm-48.76 16.68h48.15v16.88H831.2zm37.2 48.8H745.9v-15.24h140.9v60.6z" stroke="#000" stroke-opacity="0" stroke-width="16.39" fill="#db7b96"/><path d="M884.74 225.12h-89.47V118.56h89.47zm-44.63 23.8h-.2c-4.96 0-8.88 4.67-8.88 10.57 0 5.7 3.92 10.36 8.88 10.36 4.96 0 8.9-4.67 8.9-10.37v-.2c0-5.7-3.94-10.38-8.7-10.38z" stroke="#000" stroke-width="2.02" fill="#fff"/><path d="M813.04 152.1h.2c5.6 0 10.13-5.28 10.13-11.78 0-6.72-4.54-12-10.12-12-5.58 0-10.13 5.28-10.13 11.8 0 6.7 4.34 12 9.92 12zm0-19.1c3.3 0 6.2 3.25 6.2 7.1 0 4.08-2.7 7.34-6 7.34s-6.2-3.06-6.2-7.12v-.2c0-3.87 2.7-6.92 6-7.13zm0 50.84h.2c5.6 0 10.13-5.3 10.13-12 0-6.5-4.54-11.8-10.12-11.8-5.58 0-10.13 5.3-10.13 11.8 0 6.5 4.34 12 9.92 12zm0-19.12c3.3 0 6.2 3.05 6.2 7.12 0 3.86-2.7 7.12-6 7.32-3.3 0-6.2-3.05-6.2-7.12v-.2c0-3.87 2.7-7.12 6-7.12zm17.98 19.12h44.42c1.04 0 2.07-1.02 2.07-2.44v-50.64c0-1.42-1.02-2.44-2.06-2.44h-44.42c-1.24 0-2.07 1.02-2.07 2.44v50.64c0 1.42.83 2.44 2.07 2.44zm1.86-50.84h40.5v45.96h-40.5zm75.2 122.63h-53.92c-1.24-6.1-4.96-10.78-10.13-12.6v-8.35H880c7 0 12.8-6.9 12.8-15.25v-95.18c0-8.34-5.8-15.05-12.8-15.25H800c-7.02.2-12.8 6.9-12.8 15.25v95.18c0 8.34 5.78 15.25 12.8 15.25h35.96v8.34c-5.17 1.83-8.9 6.5-9.92 12.6h-53.93c-1.86 0-3.3 1.84-3.3 3.87 0 2.03 1.44 3.65 3.3 3.65h53.93c1.24 6.7 5.37 11.6 10.95 13.02 7.86 2.03 15.3-3.87 17.16-13.02h53.72c1.86 0 3.3-1.62 3.3-3.66s-1.44-3.87-3.3-3.87zM800.03 120.6H880c1.85 0 3.1 1.62 3.3 3.65v70.77H796.9v-70.77c0-2.03 1.45-3.66 3.1-3.66zm-3.1 98.83v-14.85h86.37v14.85c-.2 2.23-1.45 3.86-3.3 3.86H800c-1.65 0-3.1-1.64-3.1-3.87zm43.2 49.42c-4.56.2-8.28-4.07-8.28-9.36 0-5.3 3.52-9.57 8.06-9.57 4.34 0 8.06 4.07 8.06 9.36v.2c.2 5.08-3.5 9.35-7.85 9.55z" stroke="#000" stroke-opacity="0" stroke-width="16.39" fill="#e52e62"/><path d="M922.74 174.9h121.6a6 6 0 0 0 6-6v-487.84a6 6 0 0 1 6-6h124.42" stroke="#5e5e5e" stroke-width="2" fill="none"/><path d="M904.3 174.9l17.44-5.68v11.33zM1197.63-324.94l-15.88 9.17v-18.33z" stroke="#5e5e5e" stroke-width="2" fill="#5e5e5e"/><path d="M-445.9 550.83V403.9a1.6 1.6 0 0 0-1.6-1.6 1.6 1.6 0 0 1-1.6-1.6V256.55" stroke="#5e5e5e" stroke-width="2" fill="none"/><path d="M-445.9 567.7l-9.16-15.87h18.33zM-449.1 238.12l5.67 17.44h-11.33z" stroke="#5e5e5e" stroke-width="2" fill="#5e5e5e"/><path d="M299.8-52.8a6 6 0 0 1 6-6h628a6 6 0 0 1 6 6v44a6 6 0 0 1-6 6h-628a6 6 0 0 1-6-6z" fill="none"/><use xlink:href="#b" transform="matrix(1,0,0,1,299.79835417211,-58.78975801140143) translate(59.55555555555554 42.66666666666667)"/><use xlink:href="#c" transform="matrix(1,0,0,1,299.79835417211,-58.78975801140143) translate(317.037037037037 42.66666666666667)"/><use xlink:href="#d" transform="matrix(1,0,0,1,299.79835417211,-58.78975801140143) translate(221.48148148148147 106.66666666666667)"/><path d="M-301.56 395.97a6 6 0 0 1 6-6h228a6 6 0 0 1 6 6v48a6 6 0 0 1-6 6h-228a6 6 0 0 1-6-6z" fill="none"/><use xlink:href="#e" transform="matrix(1,0,0,1,-301.5608302117532,389.9677020318352) translate(-8.740740740740733 42.66666666666667)"/><use xlink:href="#f" transform="matrix(1,0,0,1,-301.5608302117532,389.9677020318352) translate(20.962962962962962 106.66666666666667)"/><path d="M1259.62 848.92c-21.75 17.14-53.26 13.5-70.48-8.26-17.12-21.77-13.5-53.43 8.26-70.66.3-.2.5-.3.7-.5l.6-.4c22.05-16.74 53.47-12.4 70.18 9.77 16.6 21.97 12.48 53.12-9.26 70.05" stroke="#000" stroke-opacity="0" fill="url(#g)"/><path d="M1215.2 798.64c14.77-14.05 32.2-21.04 52.57-21.13-2.72-3.34-5.32-5.9-8.77-8.5-10.04.62-18.45 2.6-27.7 6.52-9.5 4.06-16.88 9.16-24 16.6 3.43 1.33 5.98 3.4 7.9 6.52zM1190.4 818.9c-2.12 5.3-3.58 9.92-4.92 15.48 1.18 1.98 2.27 3.6 3.67 5.44 1.08 1.4 2.05 2.52 3.26 3.8 1.5-7.38 3.43-13.5 6.4-20.43-3.3-.6-5.98-1.97-8.4-4.3z" stroke="#000" stroke-opacity="0" fill="#fff" fill-opacity=".6"/><path d="M1196.2 792c-2.2-5.9-3.43-11.12-4.08-17.37-2.6 2.75-4.55 5.35-6.5 8.6.72 5 1.72 9.18 3.33 13.96 1.97-2.5 4.25-4.14 7.24-5.2z" stroke="#000" stroke-opacity="0" fill="#f2f2f2" fill-opacity=".55"/><path d="M1217.75 807.2c0 8.92-7.23 16.15-16.14 16.15-8.9 0-16.13-7.23-16.13-16.14 0-8.9 7.23-16.13 16.14-16.13 8.92 0 16.15 7.23 16.15 16.14z" stroke="#000" stroke-opacity="0" fill="url(#h)"/><path d="M1225 836.66c0-2.93 1.06-5.44 3.17-7.48-5.7-3.15-10.17-6.46-14.87-11-2.44 2.64-5.25 4.2-8.77 4.86 2.76 2.9 5.32 5.17 8.53 7.58 3.97 3 7.57 5.2 12.06 7.37-.07-.47-.1-.86-.12-1.34zM1262.2 837.96c-5.7 0-10.58-.56-16.17-1.9v.68c0 2.85-1 5.3-2.98 7.32 6.96 1.4 12.98 1.82 20.08 1.44 2.68-2.53 4.7-4.92 6.8-7.97-2.7.3-5 .43-7.72.43z" stroke="#000" stroke-opacity="0" fill="#f2f2f2" fill-opacity=".55"/><path d="M1245.93 836.73c0 5.8-4.68 10.5-10.44 10.5-5.78 0-10.45-4.7-10.45-10.5s4.67-10.5 10.44-10.5c5.75 0 10.43 4.7 10.43 10.5z" stroke="#000" stroke-opacity="0" fill="url(#i)"/><path d="M1248.45 808.75c.58-2.4 1.73-4.3 3.6-5.87-10.26-7.43-18.12-14.8-26.3-24.53-4.74-5.62-8.2-10.77-11.66-17.25-2.37.72-4.28 1.43-6.45 2.48 3.68 7.05 7.46 12.72 12.56 18.82 8.76 10.48 17.24 18.4 28.25 26.35z" stroke="#000" stroke-opacity="0" fill="#f2f2f2" fill-opacity=".7"/><path d="M1270.53 810.75c0 6.16-4.97 11.16-11.1 11.16s-11.1-5-11.1-11.15c0-6.16 4.97-11.16 11.1-11.16s11.1 5 11.1 11.15z" stroke="#000" stroke-opacity="0" fill="#fff"/><path d="M1278.03 818.26l-1.9-1-.17-.1-1.75-.94-.3-.2c-.54-.27-1.06-.57-1.58-.86l-.4-.23-1.85-1.06c-.65 2.27-1.86 4.03-3.74 5.46.72.4 1.46.84 2.2 1.27l.5.27 2.05 1.14.2.13c1.65.9 3.32 1.8 5.08 2.66.74-2.28 1.25-4.24 1.67-6.58z" stroke="#000" stroke-opacity="0" fill="#f2f2f2" fill-opacity=".55"/><path d="M1217.75 807.2c0 8.92-7.23 16.15-16.14 16.15-8.9 0-16.13-7.23-16.13-16.14 0-8.9 7.23-16.13 16.14-16.13 8.92 0 16.15 7.23 16.15 16.14zM1245.93 836.73c0 5.8-4.68 10.5-10.44 10.5-5.78 0-10.45-4.7-10.45-10.5s4.67-10.5 10.44-10.5c5.75 0 10.43 4.7 10.43 10.5z" stroke="#000" stroke-opacity="0" fill="#fff"/><path d="M1296.05 878.9h-58c-1.88 0-2.95-2.92-1.95-4.45l20.05-29.26c.25-.37.37-.8.37-1.3v-19.35c0-.6-.5-1.1-1.12-1.1h-1.07c-1.25 0-2.32-1.04-2.32-2.32v-.98c0-1.28 1.02-2.32 2.33-2.32h25.43c1.26 0 2.26 1.04 2.26 2.32v1.04c0 1.27-1 2.25-2.26 2.25h-1.06c-.7 0-1.2.55-1.2 1.16v19.3c0 .56.13 1 .45 1.35l19.98 29.2c1.13 1.53 0 4.46-1.88 4.46z" stroke="#000" stroke-opacity="0" fill="url(#j)"/><path d="M1244.7 871.17l15.22-22.2c.68-1 1-2 1-3.18v-8.94c0-.95.76-1.75 1.75-1.75h8.64c.95 0 1.76.77 1.76 1.76v9.58c0 .8.23 1.45.68 2.1l15.52 22.63c.4.6.27 1.45-.36 1.87-.22.15-.45.23-.72.23h-42.34c-.72 0-1.35-.57-1.35-1.34 0-.26.08-.5.2-.76z" stroke="#000" stroke-opacity="0" fill="#fff"/><path d="M1249.33 864.46c7.8-5.12 16.68-6.14 25.44-2.88 0 0 5.6 3.1 7.56-.6l7.15 9.98c.64.86.4 2.06-.46 2.67-.32.25-.68.36-1.1.36h-42c-1.04 0-1.9-.87-1.9-1.94 0-.43.13-.8.36-1.14z" stroke="#000" stroke-opacity="0" fill="#3cd4c2"/><path d="M1238.37 740.96V247.53a.93.93 0 0 1 .93-.94.93.93 0 0 0 .93-.94v-490.64" stroke="#5e5e5e" stroke-width="2" fill="none"/><path d="M1238.37 757.84l-9.17-15.88h18.34zM1240.23-263.4l5.67 17.42h-11.33z" stroke="#5e5e5e" stroke-width="2" fill="#5e5e5e"/><path d="M694.84 174.9H-367.42" stroke="#5e5e5e" stroke-width="2" fill="none"/><path d="M711.72 174.9l-15.88 9.16v-18.34zM-385.86 174.9l17.44-5.68v11.33z" stroke="#5e5e5e" stroke-width="2" fill="#5e5e5e"/><path d="M1273.18 1187.27c4.9 0 8.82-3.93 8.92-8.83v-1.03c-3.5-28.17-19.45-50.6-49.4-50.6-30.08 0-47.42 19.22-50.83 50.67-.4 4.9 3.1 9.2 8.02 9.74h83.28z" stroke="#000" stroke-opacity="0" fill="url(#k)"/><path d="M1232.3 1133.45c-5.6-.04-10.38-1.45-15.06-4.5l14.85 39.12 14.97-38.85c-4.65 2.9-9.3 4.23-14.77 4.23z" stroke="#000" stroke-opacity="0" fill="#fff" fill-opacity=".8"/><path d="M1260.3 1105.43c0 15.43-12.57 27.96-28.03 27.96-15.47 0-28.03-12.54-28.03-27.97s12.56-27.96 28.03-27.96c15.46 0 28.02 12.53 28.02 27.96z" stroke="#000" stroke-opacity="0" fill="url(#l)"/><path d="M1294.87 1165.55c0 16.05-19.46 29.04-23.7 31.68-.55.3-1.1.3-1.63 0-4.5-2.9-24.05-15.8-24.05-31.68v-19.6c0-.84.63-1.5 1.47-1.57 15.16-.42 11.7-7.03 23.06-7.03s7.85 6.6 23 7.04v-.02c.85.06 1.5.73 1.5 1.57z" stroke="#000" stroke-opacity="0" fill="#005ba1"/><path d="M1292.52 1165.6c0 14.8-17.86 26.76-21.73 29.13-.5.28-1.05.28-1.5 0-3.88-2.37-21.78-14.1-21.78-29.14v-17.85c-.04-.72.54-1.33 1.26-1.38h.1c14.1 0 10.72-6.5 21.18-6.5 10.47 0 7.08 6.1 21.2 6.5.76 0 1.35.6 1.35 1.32v.05z" stroke="#000" stroke-opacity="0" fill="url(#m)"/><path d="M1238.37 1059.34V900.58" stroke="#5e5e5e" stroke-width="2" fill="none"/><path d="M1238.37 1076.22l-9.17-15.88h18.34zM1238.37 882.14l5.66 17.44h-11.33z" stroke="#5e5e5e" stroke-width="2" fill="#5e5e5e"/><path d="M-33.56 1122.2H-91.1c-5.73 0-10.44 4.65-10.44 10.5l39.2 6.6 39.2-6.6c0-5.85-4.7-10.5-10.42-10.5zM-101.53 1261.7c0 5.85 4.7 10.5 10.42 10.5h57.54c5.72 0 10.42-4.65 10.42-10.5l-39.2-6.6-39.2 6.6z" stroke="#000" stroke-opacity="0" stroke-width=".29" fill="#06344c"/><path d="M-101.53 1132.7h78.4v129h-78.4v-129z" stroke="#000" stroke-opacity="0" stroke-width=".29" fill="#0299d1"/><path d="M-133.44 1118.92H-191c-5.7 0-10.4 4.65-10.4 10.5l39.19 6.6 39.18-6.6c0-5.85-4.7-10.5-10.42-10.5zM-201.4 1258.42c0 5.85 4.7 10.5 10.4 10.5h57.56c5.72 0 10.42-4.65 10.42-10.5l-39.2-6.6-39.2 6.6z" stroke="#000" stroke-opacity="0" stroke-width=".29" fill="#06344c"/><path d="M-201.4 1129.42h78.39-.02v129h-78.4v-129z" stroke="#000" stroke-opacity="0" stroke-width=".29" fill="#0299d1"/><path d="M-240.03 1122.2h-57.54c-5.73 0-10.43 4.65-10.43 10.5l39.2 6.6 39.2-6.6c0-5.85-4.7-10.5-10.43-10.5zM-308 1261.7c0 5.85 4.7 10.5 10.43 10.5h57.54c5.72 0 10.43-4.65 10.43-10.5l-39.2-6.6-39.2 6.6z" stroke="#000" stroke-opacity="0" stroke-width=".29" fill="#06344c"/><path d="M-308 1132.7h78.4v129H-308v-129z" stroke="#000" stroke-opacity="0" stroke-width=".29" fill="#0299d1"/><path d="M-261.37 1100.53v-17.94a.4.4 0 0 1 .38-.4.4.4 0 0 0 .4-.4V709.17a6 6 0 0 0-6-6h-18.95" stroke="#5e5e5e" stroke-width="2" fill="none"/><path d="M-261.37 1118.96l-5.67-17.43h11.33zM-304 703.16l17.45-5.66v11.33z" stroke="#5e5e5e" stroke-width="2" fill="#5e5e5e"/><path d="M-162.22 1097.25V666.5a6 6 0 0 0-6-6h-117.33" stroke="#5e5e5e" stroke-width="2" fill="none"/><path d="M-162.22 1115.7l-5.66-17.45h11.33zM-304 660.5l17.45-5.67v11.33z" stroke="#5e5e5e" stroke-width="2" fill="#5e5e5e"/><path d="M-62.34 1100.53V622.5a6 6 0 0 0-6-6h-220" stroke="#5e5e5e" stroke-width="2" fill="none"/><path d="M-62.34 1118.96l-5.66-17.43h11.33zM-305.23 616.5l15.88-9.17v18.33z" stroke="#5e5e5e" stroke-width="2" fill="#5e5e5e"/><path d="M-190.5-509.82c-5.86 0-12.25 5.84-12.25 11.74v51.75h12.25v-24h11.75v24h11.7v-51.75c0-5.9-5.84-11.74-12.24-11.74h-11.2zm0 27.23v-16.05h11.75v16.06h-11.75zM-146.24-510.33c-6.4 0-12.25 5.88-12.25 11.7v52.3h11.73v-24h11.75c5.85 0 12.24-5.9 12.24-11.72v-16c0-5.88-5.85-11.77-12.25-11.77h-11.2v-.5zm-.53 27.7v-16h11.75v16h-11.75zM-102.47-498.08v40h-12.24v11.75h36.2v-11.75H-90.2v-40h11.73v-11.74h-36.2v11.74h12.23z" fill="#5c85de"/><path d="M-190.5-470.3v-12.26h8l-8 12.26zM-146.7-470.3v-12.26h6.93l-6.94 12.26zM-102.42-490.05v-8h12.26l-12.26 8z" fill="#3367d6"/><path d="M-206.5-516.73v76.8h128v-76.8z" fill-opacity="0"/><path d="M-195.84-396.5c-5.85 0-12.24 5.85-12.24 11.76V-333h12.25v-24h11.75v24h11.7v-51.74c0-5.9-5.85-11.75-12.24-11.75h-11.22zm0 27.25v-16.06h11.75v16.05h-11.74zM-151.57-397c-6.4 0-12.25 5.9-12.25 11.7v52.3h11.7v-24h11.76c5.86 0 12.25-5.9 12.25-11.7v-16c0-5.9-5.87-11.8-12.26-11.8h-11.2v-.5zm-.54 27.7v-16h11.74v16h-11.75zM-107.8-384.74v40h-12.25V-333h36.23v-11.75h-11.74v-40h11.74v-11.74h-36.23v11.76h12.25z" fill="#5c85de"/><path d="M-195.82-356.96v-12.27h8l-8 12.27zM-152.04-356.96v-12.27h6.93l-6.94 12.27zM-107.76-376.7v-8h12.27l-12.26 8z" fill="#3367d6"/><path d="M-211.82-403.4v76.8h128v-76.8zM-509.1 114.9h120v120h-120z" fill-opacity="0"/><path d="M-507.9 172l55.92-55.9c1.56-1.57 4.1-1.57 5.65-.13 0 .12.12.12.12.12l55.9 55.9c1.56 1.57 1.56 4.1.13 5.65-.13 0-.13.12-.13.12l-56.03 55.92c-1.56 1.55-3.97 1.55-5.53 0l-56.03-55.93c-1.56-1.56-1.56-4.08-.12-5.64.13 0 .13-.12.13-.12z" fill="url(#n)"/><path d="M-434.5 141.5l-14.12-14.04c-.3-.27-.77-.27-1.07 0l-14.1 14.03c-.24.17-.35.44-.26.72.08.36.44.57.8.48h8.25c.38 0 .7.33.7.73v13.33c0 .4.34.73.75.73h8.8c.4 0 .74-.34.74-.74v-13.33c0-.4.3-.73.7-.73h8.25c.3.06.57-.03.72-.27.2-.3.12-.73-.18-.94zM-482.43 158.96l-13.97 14.2c-.28.3-.28.7 0 1l13.97 14.05c.15.2.33.25.54.25.44-.03.74-.36.74-.75v-8.22c0-.4.3-.72.72-.72H-467.07c.36-.03.63-.36.6-.75v-8.78c.04-.06.07-.15.1-.24.06-.36-.22-.7-.58-.75h-13.3c-.37.03-.7-.24-.73-.6v-8.13c.15-.42-.06-.87-.45-1-.43-.14-.85.07-1 .46zM-415.28 188.27l14.2-14.14c.3-.3.3-.7 0-1l-14.2-14.14c-.12-.13-.24-.2-.42-.2-.4-.02-.76.3-.76.72v8.33c0 .38-.3.68-.67.68h-13.47c-.37.03-.64.36-.6.7v8.9c0 .36.3.66.65.66h13.36c.4 0 .74.34.74.73v8.27c0 .14.06.26.15.38.26.33.72.36 1.02.1z" fill="#b4ec36"/><path d="M-430.5 174.88c.04-8.55-5.4-15.75-13.6-18-9.87-2.77-20.13 3.02-22.9 12.86-2.78 9.9 3.02 20.13 12.92 22.9V199c-2.2 1.1-3.76 2.64-4.9 4.9-2.9 5.53-.72 12.4 4.9 15.3 5.58 2.9 12.46.7 15.36-4.9 2.87-5.58.67-12.46-4.9-15.3v-6.68c7.88-2.38 13-9.27 13.13-17.44z" fill="#fff"/><path d="M-438.18 174.77c0 5.96-4.83 10.8-10.8 10.8-5.96 0-10.8-4.84-10.8-10.8 0-5.96 4.84-10.8 10.8-10.8 5.97 0 10.8 4.84 10.8 10.8z" fill="#5ea0ef"/><path d="M-418.67 130.57V-225.9a6 6 0 0 1 6-6h179.18" stroke="#5e5e5e" stroke-width="2" fill="none"/><path d="M-412.96 141.02l-15.65-9.54 16.08-8.8zM-215.06-231.9l-17.43 5.65v-11.33z" stroke="#5e5e5e" stroke-width="2" fill="#5e5e5e"/><path d="M-483.76 124v-483a6 6 0 0 1 6-6h244.27" stroke="#5e5e5e" stroke-width="2" fill="none"/><path d="M-483.76 140.9l-9.17-15.9h18.33zM-215.06-365l-17.43 5.66v-11.33z" stroke="#5e5e5e" stroke-width="2" fill="#5e5e5e"/><path d="M-527.97 174.9h-15.13a6 6 0 0 1-6-6v-636.12a6 6 0 0 1 6-6h314.94" stroke="#5e5e5e" stroke-width="2" fill="none"/><path d="M-511.1 174.9l-15.87 9.16v-18.34zM-209.72-473.22l-17.44 5.66v-11.33z" stroke="#5e5e5e" stroke-width="2" fill="#5e5e5e"/><path d="M-584.56 569.7h277.33v208h-277.33z" fill-opacity="0"/><path d="M-348.82 569.7c11.92 0 21.63 4.16 29.67 12.48 8.04 7.9 11.92 17.68 11.92 29.33v124.4c0 12.06-3.88 22.04-11.92 29.95-8.04 7.9-17.75 11.85-29.68 11.85h-194.13c-11.92 0-21.63-3.95-29.67-11.85-8.05-7.9-11.93-17.9-11.93-29.96V611.5c0-11.64 3.88-21.4 11.93-29.32 8.04-8.32 17.75-12.48 29.67-12.48h194.14zm-193.03 28.08c-3.6 0-5.82.42-6.38 1.25l95.4 59.5c2.5 1.45 5 2.28 8.05 2.28 2.77 0 5.27-.82 6.93-2.28l95.96-59.5c-.82-.82-1.93-1.24-3.32-1.24h-196.63zm193.03 152.26c9.15 0 13.86-4.58 13.86-14.14V628.14l-88.75 55.33c-6.94 4.37-14.15 6.45-22.2 6.45-7.48 0-14.97-2.08-22.18-6.45l-88.75-55.33V735.9c0 9.56 4.72 14.14 13.87 14.14h194.14z" fill="url(#o)"/><path d="M-542.67-686.67a6 6 0 0 1 6-6h228a6 6 0 0 1 6 6v48a6 6 0 0 1-6 6h-228a6 6 0 0 1-6-6z" fill="none"/><use xlink:href="#p" transform="matrix(1,0,0,1,-542.6666666666667,-692.6666666666666) translate(21.555555555555557 25.6)"/><use xlink:href="#q" transform="matrix(1,0,0,1,-542.6666666666667,-692.6666666666666) translate(1.0666666666666629 64)"/><use xlink:href="#r" transform="matrix(1,0,0,1,-542.6666666666667,-692.6666666666666) translate(125.24444444444444 64)"/><path d="M-272-1034.67a6 6 0 0 1 6-6h228a6 6 0 0 1 6 6v48a6 6 0 0 1-6 6h-228a6 6 0 0 1-6-6z" fill="none"/><use xlink:href="#s" transform="matrix(1,0,0,1,-272.0000000000001,-1040.6666666666665) translate(111.11111111111111 36.4)"/><path d="M1.2-957.33a6 6 0 0 1 6-6h769.34a6 6 0 0 1 6 6v200a6 6 0 0 1-6 6H7.2a6 6 0 0 1-6-6z" fill="none"/><use xlink:href="#t" transform="matrix(1,0,0,1,1.2087478479994047,-963.3333333333335) translate(13.888888888888857 74.5)"/><use xlink:href="#u" transform="matrix(1,0,0,1,1.2087478479994047,-963.3333333333335) translate(497.44444444444446 74.5)"/><use xlink:href="#v" transform="matrix(1,0,0,1,1.2087478479994047,-963.3333333333335) translate(257.77777777777777 170.5)"/><path d="M-32-447.06a6 6 0 0 1 6-6h496.03a6 6 0 0 1 6 6v84a6 6 0 0 1-6 6H-26a6 6 0 0 1-6-6z" fill="none"/><use xlink:href="#w" transform="matrix(1,0,0,1,-32.000000000000114,-453.0615456723674) translate(54.7222222222222 58.66666666666667)"/><use xlink:href="#x" transform="matrix(1,0,0,1,-32.000000000000114,-453.0615456723674) translate(321.0925925925926 58.66666666666667)"/><path d="M694.37 884.9a6 6 0 0 1 6-6h544a6 6 0 0 1 6 6v32a6 6 0 0 1-6 6h-544a6 6 0 0 1-6-6z" fill="none"/><use xlink:href="#y" transform="matrix(1,0,0,1,694.3678542370178,878.9089939869755) translate(39.62962962962959 42.66666666666667)"/><use xlink:href="#z" transform="matrix(1,0,0,1,694.3678542370178,878.9089939869755) translate(226.2962962962963 42.66666666666667)"/><use xlink:href="#A" transform="matrix(1,0,0,1,694.3678542370178,878.9089939869755) translate(391.925925925926 42.66666666666667)"/><path d="M818.3 1113.47a6 6 0 0 1 6-6h337.33a6 6 0 0 1 6 6v48a6 6 0 0 1-6 6H824.3a6 6 0 0 1-6-6z" fill="none"/><g><use xlink:href="#B" transform="matrix(1,0,0,1,818.2990582820489,1107.4706148675928) translate(22.703703703703695 42.66666666666667)"/><use xlink:href="#C" transform="matrix(1,0,0,1,818.2990582820489,1107.4706148675928) translate(214.99999999999997 42.66666666666667)"/></g><path d="M393.44 535.97a6 6 0 0 1 6-6h301.33a6 6 0 0 1 6 6v21.33a6 6 0 0 1-6 6H399.44a6 6 0 0 1-6-6z" fill="none"/><g><use xlink:href="#D" transform="matrix(1,0,0,1,393.4346318788213,529.9677020318352) translate(37.222222222222214 42.66666666666667)"/><use xlink:href="#E" transform="matrix(1,0,0,1,393.4346318788213,529.9677020318352) translate(78.62962962962962 106.66666666666667)"/></g><path d="M-585.33 1128.2a6 6 0 0 1 6-6h228a6 6 0 0 1 6 6v48a6 6 0 0 1-6 6h-228a6 6 0 0 1-6-6z" fill="none"/><g><use xlink:href="#F" transform="matrix(1,0,0,1,-585.3333333332946,1122.198827206627) translate(38.74074074074073 42.66666666666667)"/></g><path d="M-739.72 240.9a6 6 0 0 1 6-6h228a6 6 0 0 1 6 6v48a6 6 0 0 1-6 6h-228a6 6 0 0 1-6-6z" fill="none"/><g><use xlink:href="#G" transform="matrix(1,0,0,1,-739.7209956696075,234.88832650746622) translate(75.55555555555556 32)"/><use xlink:href="#H" transform="matrix(1,0,0,1,-739.7209956696075,234.88832650746622) translate(41.222222222222214 80)"/></g><path d="M905.33-447.06a6 6 0 0 1 6-6h228a6 6 0 0 1 6 6v48a6 6 0 0 1-6 6h-228a6 6 0 0 1-6-6z" fill="none"/><g><use xlink:href="#I" transform="matrix(1,0,0,1,905.333333333333,-453.0615456723674) translate(6 42.66666666666667)"/></g><defs><linearGradient gradientUnits="userSpaceOnUse" id="a" x1="1199.63" y1="-324.98" x2="1319.63" y2="-324.98"><stop offset="0%" stop-color="#005ba1"/><stop offset="7%" stop-color="#0060a9"/><stop offset="36%" stop-color="#0071c8"/><stop offset="52%" stop-color="#0078d4"/><stop offset="64%" stop-color="#0074cd"/><stop offset="82%" stop-color="#006abb"/><stop offset="100%" stop-color="#005ba1"/></linearGradient><path fill="#282c33" d="M30-248c118-7 216 8 213 122C240-48 200 0 122 0H30v-248zM63-27c89 8 146-16 146-99s-60-101-146-95v194" id="J"/><path fill="#282c33" d="M100-194c62-1 85 37 85 99 1 63-27 99-86 99S16-35 15-95c0-66 28-99 85-99zM99-20c44 1 53-31 53-75 0-43-8-75-51-75s-53 32-53 75 10 74 51 75" id="K"/><path fill="#282c33" d="M96-169c-40 0-48 33-48 73s9 75 48 75c24 0 41-14 43-38l32 2c-6 37-31 61-74 61-59 0-76-41-82-99-10-93 101-131 147-64 4 7 5 14 7 22l-32 3c-4-21-16-35-41-35" id="L"/><path fill="#282c33" d="M84 4C-5 8 30-112 23-190h32v120c0 31 7 50 39 49 72-2 45-101 50-169h31l1 190h-30c-1-10 1-25-2-33-11 22-28 36-60 37" id="M"/><path fill="#282c33" d="M210-169c-67 3-38 105-44 169h-31v-121c0-29-5-50-35-48C34-165 62-65 56 0H25l-1-190h30c1 10-1 24 2 32 10-44 99-50 107 0 11-21 27-35 58-36 85-2 47 119 55 194h-31v-121c0-29-5-49-35-48" id="N"/><path fill="#282c33" d="M100-194c63 0 86 42 84 106H49c0 40 14 67 53 68 26 1 43-12 49-29l28 8c-11 28-37 45-77 45C44 4 14-33 15-96c1-61 26-98 85-98zm52 81c6-60-76-77-97-28-3 7-6 17-6 28h103" id="O"/><path fill="#282c33" d="M117-194c89-4 53 116 60 194h-32v-121c0-31-8-49-39-48C34-167 62-67 57 0H25l-1-190h30c1 10-1 24 2 32 11-22 29-35 61-36" id="P"/><path fill="#282c33" d="M59-47c-2 24 18 29 38 22v24C64 9 27 4 27-40v-127H5v-23h24l9-43h21v43h35v23H59v120" id="Q"/><g id="b"><use transform="matrix(0.14814814814814817,0,0,0.14814814814814817,0,0)" xlink:href="#J"/><use transform="matrix(0.14814814814814817,0,0,0.14814814814814817,38.370370370370374,0)" xlink:href="#K"/><use transform="matrix(0.14814814814814817,0,0,0.14814814814814817,68,0)" xlink:href="#L"/><use transform="matrix(0.14814814814814817,0,0,0.14814814814814817,94.66666666666669,0)" xlink:href="#M"/><use transform="matrix(0.14814814814814817,0,0,0.14814814814814817,124.29629629629632,0)" xlink:href="#N"/><use transform="matrix(0.14814814814814817,0,0,0.14814814814814817,168.5925925925926,0)" xlink:href="#O"/><use transform="matrix(0.14814814814814817,0,0,0.14814814814814817,198.22222222222223,0)" xlink:href="#P"/><use transform="matrix(0.14814814814814817,0,0,0.14814814814814817,227.85185185185185,0)" xlink:href="#Q"/></g><path fill="#282c33" d="M30-248c87 1 191-15 191 75 0 78-77 80-158 76V0H30v-248zm33 125c57 0 124 11 124-50 0-59-68-47-124-48v98" id="R"/><path fill="#282c33" d="M114-163C36-179 61-72 57 0H25l-1-190h30c1 12-1 29 2 39 6-27 23-49 58-41v29" id="S"/><path fill="#282c33" d="M135-143c-3-34-86-38-87 0 15 53 115 12 119 90S17 21 10-45l28-5c4 36 97 45 98 0-10-56-113-15-118-90-4-57 82-63 122-42 12 7 21 19 24 35" id="T"/><path fill="#282c33" d="M24-231v-30h32v30H24zM24 0v-190h32V0H24" id="U"/><path fill="#282c33" d="M177-190C167-65 218 103 67 71c-23-6-38-20-44-43l32-5c15 47 100 32 89-28v-30C133-14 115 1 83 1 29 1 15-40 15-95c0-56 16-97 71-98 29-1 48 16 59 35 1-10 0-23 2-32h30zM94-22c36 0 50-32 50-73 0-42-14-75-50-75-39 0-46 34-46 75s6 73 46 73" id="V"/><g id="c"><use transform="matrix(0.14814814814814817,0,0,0.14814814814814817,0,0)" xlink:href="#R"/><use transform="matrix(0.14814814814814817,0,0,0.14814814814814817,35.55555555555556,0)" xlink:href="#S"/><use transform="matrix(0.14814814814814817,0,0,0.14814814814814817,53.18518518518519,0)" xlink:href="#K"/><use transform="matrix(0.14814814814814817,0,0,0.14814814814814817,82.81481481481482,0)" xlink:href="#L"/><use transform="matrix(0.14814814814814817,0,0,0.14814814814814817,109.4814814814815,0)" xlink:href="#O"/><use transform="matrix(0.14814814814814817,0,0,0.14814814814814817,139.11111111111114,0)" xlink:href="#T"/><use transform="matrix(0.14814814814814817,0,0,0.14814814814814817,165.77777777777783,0)" xlink:href="#T"/><use transform="matrix(0.14814814814814817,0,0,0.14814814814814817,192.4444444444445,0)" xlink:href="#U"/><use transform="matrix(0.14814814814814817,0,0,0.14814814814814817,204.1481481481482,0)" xlink:href="#P"/><use transform="matrix(0.14814814814814817,0,0,0.14814814814814817,233.77777777777783,0)" xlink:href="#V"/></g><path fill="#282c33" d="M266 0h-40l-56-210L115 0H75L2-248h35L96-30l15-64 43-154h32l59 218 59-218h35" id="W"/><path fill="#282c33" d="M143 0L79-87 56-68V0H24v-261h32v163l83-92h37l-77 82L181 0h-38" id="X"/><g id="d"><use transform="matrix(0.14814814814814817,0,0,0.14814814814814817,0,0)" xlink:href="#W"/><use transform="matrix(0.14814814814814817,0,0,0.14814814814814817,49.18518518518519,0)" xlink:href="#K"/><use transform="matrix(0.14814814814814817,0,0,0.14814814814814817,78.81481481481482,0)" xlink:href="#S"/><use transform="matrix(0.14814814814814817,0,0,0.14814814814814817,96.44444444444446,0)" xlink:href="#X"/><use transform="matrix(0.14814814814814817,0,0,0.14814814814814817,123.11111111111113,0)" xlink:href="#O"/><use transform="matrix(0.14814814814814817,0,0,0.14814814814814817,152.74074074074076,0)" xlink:href="#S"/><use transform="matrix(0.14814814814814817,0,0,0.14814814814814817,170.37037037037038,0)" xlink:href="#T"/></g><path fill="#282c33" d="M240 0l2-218c-23 76-54 145-80 218h-23L58-218 59 0H30v-248h44l77 211c21-75 51-140 76-211h43V0h-30" id="Y"/><path fill="#282c33" d="M141-36C126-15 110 5 73 4 37 3 15-17 15-53c-1-64 63-63 125-63 3-35-9-54-41-54-24 1-41 7-42 31l-33-3c5-37 33-52 76-52 45 0 72 20 72 64v82c-1 20 7 32 28 27v20c-31 9-61-2-59-35zM48-53c0 20 12 33 32 33 41-3 63-29 60-74-43 2-92-5-92 41" id="Z"/><g id="e"><use transform="matrix(0.14814814814814817,0,0,0.14814814814814817,0,0)" xlink:href="#Y"/><use transform="matrix(0.14814814814814817,0,0,0.14814814814814817,44.296296296296305,0)" xlink:href="#O"/><use transform="matrix(0.14814814814814817,0,0,0.14814814814814817,73.92592592592594,0)" xlink:href="#T"/><use transform="matrix(0.14814814814814817,0,0,0.14814814814814817,100.59259259259261,0)" xlink:href="#T"/><use transform="matrix(0.14814814814814817,0,0,0.14814814814814817,127.25925925925928,0)" xlink:href="#Z"/><use transform="matrix(0.14814814814814817,0,0,0.14814814814814817,156.8888888888889,0)" xlink:href="#V"/><use transform="matrix(0.14814814814814817,0,0,0.14814814814814817,186.51851851851853,0)" xlink:href="#U"/><use transform="matrix(0.14814814814814817,0,0,0.14814814814814817,198.22222222222223,0)" xlink:href="#P"/><use transform="matrix(0.14814814814814817,0,0,0.14814814814814817,227.85185185185185,0)" xlink:href="#V"/></g><path fill="#282c33" d="M108 0H70L1-190h34L89-25l56-165h34" id="aa"/><path fill="#282c33" d="M85-194c31 0 48 13 60 33l-1-100h32l1 261h-30c-2-10 0-23-3-31C134-8 116 4 85 4 32 4 16-35 15-94c0-66 23-100 70-100zm9 24c-40 0-46 34-46 75 0 40 6 74 45 74 42 0 51-32 51-76 0-42-9-74-50-73" id="ab"/><g id="f"><use transform="matrix(0.14814814814814817,0,0,0.14814814814814817,0,0)" xlink:href="#R"/><use transform="matrix(0.14814814814814817,0,0,0.14814814814814817,35.55555555555556,0)" xlink:href="#S"/><use transform="matrix(0.14814814814814817,0,0,0.14814814814814817,53.18518518518519,0)" xlink:href="#K"/><use transform="matrix(0.14814814814814817,0,0,0.14814814814814817,82.81481481481482,0)" xlink:href="#aa"/><use transform="matrix(0.14814814814814817,0,0,0.14814814814814817,109.4814814814815,0)" xlink:href="#U"/><use transform="matrix(0.14814814814814817,0,0,0.14814814814814817,121.1851851851852,0)" xlink:href="#ab"/><use transform="matrix(0.14814814814814817,0,0,0.14814814814814817,150.81481481481484,0)" xlink:href="#O"/><use transform="matrix(0.14814814814814817,0,0,0.14814814814814817,180.44444444444446,0)" xlink:href="#S"/></g><radialGradient gradientUnits="userSpaceOnUse" id="g" fx="1238.54" fy="818.73" cx="1238.54" cy="818.73" r="59.75"><stop offset="18.3%" stop-color="#5ea0ef"/><stop offset="100%" stop-color="#0078d4"/></radialGradient><linearGradient gradientUnits="userSpaceOnUse" id="h" x1="1238.86" y1="880.47" x2="1238.17" y2="793.54"><stop offset="0%" stop-color="#ccc"/><stop offset="12.3%" stop-color="#d7d7d7"/><stop offset="100%" stop-color="#fcfcfc"/></linearGradient><linearGradient gradientUnits="userSpaceOnUse" id="i" x1="1238.37" y1="878.87" x2="1238.37" y2="758.91"><stop offset="0%" stop-color="#ccc"/><stop offset="12.3%" stop-color="#d7d7d7"/><stop offset="100%" stop-color="#fcfcfc"/></linearGradient><linearGradient gradientUnits="userSpaceOnUse" id="j" x1="1237.16" y1="759.45" x2="1238.44" y2="879.85"><stop offset="0%" stop-color="#32d4f5"/><stop offset="32.1%" stop-color="#31d1f3"/><stop offset="100%" stop-color="#198ab3"/></linearGradient><linearGradient gradientUnits="userSpaceOnUse" id="k" x1="1238.49" y1="1062.79" x2="1238.49" y2="1227.12"><stop offset="22%" stop-color="#32d4f5"/><stop offset="100%" stop-color="#198ab3"/></linearGradient><linearGradient gradientUnits="userSpaceOnUse" id="l" x1="1233.39" y1="1072.18" x2="1245.63" y2="1233.44"><stop offset="22%" stop-color="#32d4f5"/><stop offset="100%" stop-color="#198ab3"/></linearGradient><linearGradient gradientUnits="userSpaceOnUse" id="m" x1="1238.37" y1="1197.31" x2="1238.37" y2="1077.47"><stop offset="0%" stop-color="#1988d9"/><stop offset="90%" stop-color="#54aef0"/></linearGradient><linearGradient gradientUnits="userSpaceOnUse" id="n" x1="-449.09" y1="247.21" x2="-449.09" y2="108.1"><stop offset="0%" stop-color="#5e9624"/><stop offset="2%" stop-color="#5f9724"/><stop offset="100%" stop-color="#76bc2d"/></linearGradient><linearGradient gradientUnits="userSpaceOnUse" id="o" x1="-584.56" y1="569.7" x2="-307.23" y2="777.7"><stop offset="0%" stop-color="#00ceac"/><stop offset="100%" stop-color="#009069"/></linearGradient><path fill="#fff" d="M24 0v-248h195v40H76v63h132v40H76v65h150V0H24" id="ac"/><path fill="#fff" d="M128 0H69L1-190h53L99-40l48-150h52" id="ad"/><path fill="#fff" d="M185-48c-13 30-37 53-82 52C43 2 14-33 14-96s30-98 90-98c62 0 83 45 84 108H66c0 31 8 55 39 56 18 0 30-7 34-22zm-45-69c5-46-57-63-70-21-2 6-4 13-4 21h74" id="ae"/><path fill="#fff" d="M135-194c87-1 58 113 63 194h-50c-7-57 23-157-34-157-59 0-34 97-39 157H25l-1-190h47c2 12-1 28 3 38 12-26 28-41 61-42" id="af"/><path fill="#fff" d="M115-3C79 11 28 4 28-45v-112H4v-33h27l15-45h31v45h36v33H77v99c-1 23 16 31 38 25v30" id="ag"/><path fill="#fff" d="M14-72v-43h91v43H14" id="ah"/><path fill="#fff" d="M24-248c120-7 223 5 221 122C244-46 201 0 124 0H24v-248zM76-40c74 7 117-18 117-86 0-67-45-88-117-82v168" id="ai"/><path fill="#fff" d="M135-150c-39-12-60 13-60 57V0H25l-1-190h47c2 13-1 29 3 40 6-28 27-53 61-41v41" id="aj"/><path fill="#fff" d="M25-224v-37h50v37H25zM25 0v-190h50V0H25" id="ak"/><g id="p"><use transform="matrix(0.08888888888888889,0,0,0.08888888888888889,0,0)" xlink:href="#ac"/><use transform="matrix(0.08888888888888889,0,0,0.08888888888888889,21.333333333333336,0)" xlink:href="#ad"/><use transform="matrix(0.08888888888888889,0,0,0.08888888888888889,39.111111111111114,0)" xlink:href="#ae"/><use transform="matrix(0.08888888888888889,0,0,0.08888888888888889,56.88888888888889,0)" xlink:href="#af"/><use transform="matrix(0.08888888888888889,0,0,0.08888888888888889,76.35555555555555,0)" xlink:href="#ag"/><use transform="matrix(0.08888888888888889,0,0,0.08888888888888889,86.93333333333334,0)" xlink:href="#ah"/><use transform="matrix(0.08888888888888889,0,0,0.08888888888888889,97.51111111111112,0)" xlink:href="#ai"/><use transform="matrix(0.08888888888888889,0,0,0.08888888888888889,120.53333333333333,0)" xlink:href="#aj"/><use transform="matrix(0.08888888888888889,0,0,0.08888888888888889,132.9777777777778,0)" xlink:href="#ak"/><use transform="matrix(0.08888888888888889,0,0,0.08888888888888889,141.86666666666667,0)" xlink:href="#ad"/><use transform="matrix(0.08888888888888889,0,0,0.08888888888888889,159.64444444444445,0)" xlink:href="#ae"/><use transform="matrix(0.08888888888888889,0,0,0.08888888888888889,177.42222222222222,0)" xlink:href="#af"/></g><path fill="#fff" d="M240-174c0 40-23 61-54 70L253 0h-59l-57-94H76V0H24v-248c93 4 217-23 216 74zM76-134c48-2 112 12 112-38 0-48-66-32-112-35v73" id="al"/><path fill="#fff" d="M190-63c-7 42-38 67-86 67-59 0-84-38-90-98-12-110 154-137 174-36l-49 2c-2-19-15-32-35-32-30 0-35 28-38 64-6 74 65 87 74 30" id="am"/><path fill="#fff" d="M135-194c53 0 70 44 70 98 0 56-19 98-73 100-31 1-45-17-59-34 3 33 2 69 2 105H25l-1-265h48c2 10 0 23 3 31 11-24 29-35 60-35zM114-30c33 0 39-31 40-66 0-38-9-64-40-64-56 0-55 130 0 130" id="an"/><g id="q"><use transform="matrix(0.08888888888888889,0,0,0.08888888888888889,0,0)" xlink:href="#al"/><use transform="matrix(0.08888888888888889,0,0,0.08888888888888889,23.022222222222222,0)" xlink:href="#ae"/><use transform="matrix(0.08888888888888889,0,0,0.08888888888888889,40.8,0)" xlink:href="#am"/><use transform="matrix(0.08888888888888889,0,0,0.08888888888888889,58.57777777777778,0)" xlink:href="#ae"/><use transform="matrix(0.08888888888888889,0,0,0.08888888888888889,76.35555555555555,0)" xlink:href="#ak"/><use transform="matrix(0.08888888888888889,0,0,0.08888888888888889,85.24444444444444,0)" xlink:href="#an"/><use transform="matrix(0.08888888888888889,0,0,0.08888888888888889,104.71111111111111,0)" xlink:href="#ag"/></g><path fill="#fff" d="M169-182c-1-43-94-46-97-3 18 66 151 10 154 114 3 95-165 93-204 36-6-8-10-19-12-30l50-8c3 46 112 56 116 5-17-69-150-10-154-114-4-87 153-88 188-35 5 8 8 18 10 28" id="ao"/><path fill="#fff" d="M123 10C108 53 80 86 19 72V37c35 8 53-11 59-39L3-190h52l48 148c12-52 28-100 44-148h51" id="ap"/><path fill="#fff" d="M137-138c1-29-70-34-71-4 15 46 118 7 119 86 1 83-164 76-172 9l43-7c4 19 20 25 44 25 33 8 57-30 24-41C81-84 22-81 20-136c-2-80 154-74 161-7" id="aq"/><path fill="#fff" d="M220-157c-53 9-28 100-34 157h-49v-107c1-27-5-49-29-50C55-147 81-57 75 0H25l-1-190h47c2 12-1 28 3 38 10-53 101-56 108 0 13-22 24-43 59-42 82 1 51 116 57 194h-49v-107c-1-25-5-48-29-50" id="ar"/><g id="r"><use transform="matrix(0.08888888888888889,0,0,0.08888888888888889,0,0)" xlink:href="#ao"/><use transform="matrix(0.08888888888888889,0,0,0.08888888888888889,21.333333333333336,0)" xlink:href="#ap"/><use transform="matrix(0.08888888888888889,0,0,0.08888888888888889,39.111111111111114,0)" xlink:href="#aq"/><use transform="matrix(0.08888888888888889,0,0,0.08888888888888889,56.88888888888889,0)" xlink:href="#ag"/><use transform="matrix(0.08888888888888889,0,0,0.08888888888888889,67.46666666666667,0)" xlink:href="#ae"/><use transform="matrix(0.08888888888888889,0,0,0.08888888888888889,85.24444444444444,0)" xlink:href="#ar"/></g><path fill="#fff" d="M85-194c31 0 48 13 60 33l-1-100h32l1 261h-30c-2-10 0-23-3-31C134-8 116 4 85 4 32 4 16-35 15-94c0-66 23-100 70-100zm9 24c-40 0-46 34-46 75 0 40 6 74 45 74 42 0 51-32 51-76 0-42-9-74-50-73" id="as"/><use transform="matrix(0.08888888888888889,0,0,0.08888888888888889,0,0)" xlink:href="#as" id="s"/><path fill="#282c33" d="M30 0v-248h187v28H63v79h144v27H63v87h162V0H30" id="at"/><path fill="#282c33" d="M16-82v-28h88v28H16" id="au"/><g id="t"><use transform="matrix(0.2222222222222222,0,0,0.2222222222222222,0,0)" xlink:href="#at"/><use transform="matrix(0.2222222222222222,0,0,0.2222222222222222,53.33333333333333,0)" xlink:href="#aa"/><use transform="matrix(0.2222222222222222,0,0,0.2222222222222222,93.33333333333333,0)" xlink:href="#O"/><use transform="matrix(0.2222222222222222,0,0,0.2222222222222222,137.77777777777777,0)" xlink:href="#P"/><use transform="matrix(0.2222222222222222,0,0,0.2222222222222222,182.22222222222223,0)" xlink:href="#Q"/><use transform="matrix(0.2222222222222222,0,0,0.2222222222222222,204.44444444444446,0)" xlink:href="#au"/><use transform="matrix(0.2222222222222222,0,0,0.2222222222222222,230.8888888888889,0)" xlink:href="#J"/><use transform="matrix(0.2222222222222222,0,0,0.2222222222222222,288.44444444444446,0)" xlink:href="#S"/><use transform="matrix(0.2222222222222222,0,0,0.2222222222222222,314.8888888888889,0)" xlink:href="#U"/><use transform="matrix(0.2222222222222222,0,0,0.2222222222222222,332.44444444444446,0)" xlink:href="#aa"/><use transform="matrix(0.2222222222222222,0,0,0.2222222222222222,372.44444444444446,0)" xlink:href="#O"/><use transform="matrix(0.2222222222222222,0,0,0.2222222222222222,416.8888888888889,0)" xlink:href="#P"/><path fill="#282c33" d="M-4 5.55h491.56v5.86H-4z"/></g><path fill="#282c33" d="M233-177c-1 41-23 64-60 70L243 0h-38l-65-103H63V0H30v-248c88 3 205-21 203 71zM63-129c60-2 137 13 137-47 0-61-80-42-137-45v92" id="av"/><path fill="#282c33" d="M115-194c55 1 70 41 70 98S169 2 115 4C84 4 66-9 55-30l1 105H24l-1-265h31l2 30c10-21 28-34 59-34zm-8 174c40 0 45-34 45-75s-6-73-45-74c-42 0-51 32-51 76 0 43 10 73 51 73" id="aw"/><g id="u"><use transform="matrix(0.2222222222222222,0,0,0.2222222222222222,0,0)" xlink:href="#av"/><use transform="matrix(0.2222222222222222,0,0,0.2222222222222222,57.55555555555555,0)" xlink:href="#O"/><use transform="matrix(0.2222222222222222,0,0,0.2222222222222222,102,0)" xlink:href="#L"/><use transform="matrix(0.2222222222222222,0,0,0.2222222222222222,142,0)" xlink:href="#O"/><use transform="matrix(0.2222222222222222,0,0,0.2222222222222222,186.44444444444446,0)" xlink:href="#U"/><use transform="matrix(0.2222222222222222,0,0,0.2222222222222222,204,0)" xlink:href="#aw"/><use transform="matrix(0.2222222222222222,0,0,0.2222222222222222,248.44444444444449,0)" xlink:href="#Q"/><path fill="#282c33" d="M-4 5.55h278.67v5.86H-4z"/></g><path fill="#282c33" d="M185-189c-5-48-123-54-124 2 14 75 158 14 163 119 3 78-121 87-175 55-17-10-28-26-33-46l33-7c5 56 141 63 141-1 0-78-155-14-162-118-5-82 145-84 179-34 5 7 8 16 11 25" id="ax"/><path fill="#282c33" d="M179-190L93 31C79 59 56 82 12 73V49c39 6 53-20 64-50L1-190h34L92-34l54-156h33" id="ay"/><g id="v"><use transform="matrix(0.2222222222222222,0,0,0.2222222222222222,0,0)" xlink:href="#ax"/><use transform="matrix(0.2222222222222222,0,0,0.2222222222222222,53.33333333333333,0)" xlink:href="#ay"/><use transform="matrix(0.2222222222222222,0,0,0.2222222222222222,93.33333333333333,0)" xlink:href="#T"/><use transform="matrix(0.2222222222222222,0,0,0.2222222222222222,133.33333333333331,0)" xlink:href="#Q"/><use transform="matrix(0.2222222222222222,0,0,0.2222222222222222,155.55555555555554,0)" xlink:href="#O"/><use transform="matrix(0.2222222222222222,0,0,0.2222222222222222,200,0)" xlink:href="#N"/><path fill="#282c33" d="M-4 5.55h274.44v5.86H-4z"/></g><path fill="#282c33" d="M33 0v-248h34V0H33" id="az"/><g id="w"><use transform="matrix(0.14814814814814817,0,0,0.14814814814814817,0,0)" xlink:href="#az"/><use transform="matrix(0.14814814814814817,0,0,0.14814814814814817,14.814814814814817,0)" xlink:href="#P"/><use transform="matrix(0.14814814814814817,0,0,0.14814814814814817,44.44444444444445,0)" xlink:href="#Q"/><use transform="matrix(0.14814814814814817,0,0,0.14814814814814817,59.25925925925927,0)" xlink:href="#O"/><use transform="matrix(0.14814814814814817,0,0,0.14814814814814817,88.8888888888889,0)" xlink:href="#V"/><use transform="matrix(0.14814814814814817,0,0,0.14814814814814817,118.51851851851853,0)" xlink:href="#S"/><use transform="matrix(0.14814814814814817,0,0,0.14814814814814817,136.14814814814815,0)" xlink:href="#Z"/><use transform="matrix(0.14814814814814817,0,0,0.14814814814814817,165.77777777777777,0)" xlink:href="#Q"/><use transform="matrix(0.14814814814814817,0,0,0.14814814814814817,180.59259259259258,0)" xlink:href="#U"/><use transform="matrix(0.14814814814814817,0,0,0.14814814814814817,192.29629629629628,0)" xlink:href="#K"/><use transform="matrix(0.14814814814814817,0,0,0.14814814814814817,221.92592592592592,0)" xlink:href="#P"/></g><path fill="#282c33" d="M30 0v-248h33v221h125V0H30" id="aA"/><g id="x"><use transform="matrix(0.14814814814814817,0,0,0.14814814814814817,0,0)" xlink:href="#aA"/><use transform="matrix(0.14814814814814817,0,0,0.14814814814814817,29.629629629629633,0)" xlink:href="#Z"/><use transform="matrix(0.14814814814814817,0,0,0.14814814814814817,59.25925925925927,0)" xlink:href="#ay"/><use transform="matrix(0.14814814814814817,0,0,0.14814814814814817,85.92592592592594,0)" xlink:href="#O"/><use transform="matrix(0.14814814814814817,0,0,0.14814814814814817,115.55555555555557,0)" xlink:href="#S"/></g><path d="M30 0v-248h33v221h125V0H30" id="aB"/><path d="M100-194c63 0 86 42 84 106H49c0 40 14 67 53 68 26 1 43-12 49-29l28 8c-11 28-37 45-77 45C44 4 14-33 15-96c1-61 26-98 85-98zm52 81c6-60-76-77-97-28-3 7-6 17-6 28h103" id="aC"/><path d="M177-190C167-65 218 103 67 71c-23-6-38-20-44-43l32-5c15 47 100 32 89-28v-30C133-14 115 1 83 1 29 1 15-40 15-95c0-56 16-97 71-98 29-1 48 16 59 35 1-10 0-23 2-32h30zM94-22c36 0 50-32 50-73 0-42-14-75-50-75-39 0-46 34-46 75s6 73 46 73" id="aD"/><path d="M141-36C126-15 110 5 73 4 37 3 15-17 15-53c-1-64 63-63 125-63 3-35-9-54-41-54-24 1-41 7-42 31l-33-3c5-37 33-52 76-52 45 0 72 20 72 64v82c-1 20 7 32 28 27v20c-31 9-61-2-59-35zM48-53c0 20 12 33 32 33 41-3 63-29 60-74-43 2-92-5-92 41" id="aE"/><path d="M96-169c-40 0-48 33-48 73s9 75 48 75c24 0 41-14 43-38l32 2c-6 37-31 61-74 61-59 0-76-41-82-99-10-93 101-131 147-64 4 7 5 14 7 22l-32 3c-4-21-16-35-41-35" id="aF"/><path d="M179-190L93 31C79 59 56 82 12 73V49c39 6 53-20 64-50L1-190h34L92-34l54-156h33" id="aG"/><g id="y"><use transform="matrix(0.14814814814814817,0,0,0.14814814814814817,0,0)" xlink:href="#aB"/><use transform="matrix(0.14814814814814817,0,0,0.14814814814814817,29.629629629629633,0)" xlink:href="#aC"/><use transform="matrix(0.14814814814814817,0,0,0.14814814814814817,59.25925925925927,0)" xlink:href="#aD"/><use transform="matrix(0.14814814814814817,0,0,0.14814814814814817,88.8888888888889,0)" xlink:href="#aE"/><use transform="matrix(0.14814814814814817,0,0,0.14814814814814817,118.51851851851853,0)" xlink:href="#aF"/><use transform="matrix(0.14814814814814817,0,0,0.14814814814814817,145.18518518518522,0)" xlink:href="#aG"/></g><path d="M205 0l-28-72H64L36 0H1l101-248h38L239 0h-34zm-38-99l-47-123c-12 45-31 82-46 123h93" id="aH"/><path d="M85-194c31 0 48 13 60 33l-1-100h32l1 261h-30c-2-10 0-23-3-31C134-8 116 4 85 4 32 4 16-35 15-94c0-66 23-100 70-100zm9 24c-40 0-46 34-46 75 0 40 6 74 45 74 42 0 51-32 51-76 0-42-9-74-50-73" id="aI"/><path d="M210-169c-67 3-38 105-44 169h-31v-121c0-29-5-50-35-48C34-165 62-65 56 0H25l-1-190h30c1 10-1 24 2 32 10-44 99-50 107 0 11-21 27-35 58-36 85-2 47 119 55 194h-31v-121c0-29-5-49-35-48" id="aJ"/><path d="M24-231v-30h32v30H24zM24 0v-190h32V0H24" id="aK"/><path d="M117-194c89-4 53 116 60 194h-32v-121c0-31-8-49-39-48C34-167 62-67 57 0H25l-1-190h30c1 10-1 24 2 32 11-22 29-35 61-36" id="aL"/><g id="z"><use transform="matrix(0.14814814814814817,0,0,0.14814814814814817,0,0)" xlink:href="#aH"/><use transform="matrix(0.14814814814814817,0,0,0.14814814814814817,35.55555555555556,0)" xlink:href="#aI"/><use transform="matrix(0.14814814814814817,0,0,0.14814814814814817,65.18518518518519,0)" xlink:href="#aJ"/><use transform="matrix(0.14814814814814817,0,0,0.14814814814814817,109.4814814814815,0)" xlink:href="#aK"/><use transform="matrix(0.14814814814814817,0,0,0.14814814814814817,121.1851851851852,0)" xlink:href="#aL"/></g><path d="M30-248c87 1 191-15 191 75 0 78-77 80-158 76V0H30v-248zm33 125c57 0 124 11 124-50 0-59-68-47-124-48v98" id="aM"/><g id="A"><use transform="matrix(0.14814814814814817,0,0,0.14814814814814817,0,0)" xlink:href="#aM"/><use transform="matrix(0.14814814814814817,0,0,0.14814814814814817,35.55555555555556,0)" xlink:href="#aE"/><use transform="matrix(0.14814814814814817,0,0,0.14814814814814817,65.18518518518519,0)" xlink:href="#aD"/><use transform="matrix(0.14814814814814817,0,0,0.14814814814814817,94.81481481481482,0)" xlink:href="#aC"/></g><path d="M33 0v-248h34V0H33" id="aN"/><path d="M59-47c-2 24 18 29 38 22v24C64 9 27 4 27-40v-127H5v-23h24l9-43h21v43h35v23H59v120" id="aO"/><path d="M114-163C36-179 61-72 57 0H25l-1-190h30c1 12-1 29 2 39 6-27 23-49 58-41v29" id="aP"/><path d="M24 0v-261h32V0H24" id="aQ"/><g id="B"><use transform="matrix(0.14814814814814817,0,0,0.14814814814814817,0,0)" xlink:href="#aN"/><use transform="matrix(0.14814814814814817,0,0,0.14814814814814817,14.814814814814817,0)" xlink:href="#aL"/><use transform="matrix(0.14814814814814817,0,0,0.14814814814814817,44.44444444444445,0)" xlink:href="#aO"/><use transform="matrix(0.14814814814814817,0,0,0.14814814814814817,59.25925925925927,0)" xlink:href="#aC"/><use transform="matrix(0.14814814814814817,0,0,0.14814814814814817,88.8888888888889,0)" xlink:href="#aP"/><use transform="matrix(0.14814814814814817,0,0,0.14814814814814817,106.51851851851853,0)" xlink:href="#aL"/><use transform="matrix(0.14814814814814817,0,0,0.14814814814814817,136.14814814814815,0)" xlink:href="#aE"/><use transform="matrix(0.14814814814814817,0,0,0.14814814814814817,165.77777777777777,0)" xlink:href="#aQ"/></g><path d="M232-93c-1 65-40 97-104 97C67 4 28-28 28-90v-158h33c8 89-33 224 67 224 102 0 64-133 71-224h33v155" id="aR"/><path d="M135-143c-3-34-86-38-87 0 15 53 115 12 119 90S17 21 10-45l28-5c4 36 97 45 98 0-10-56-113-15-118-90-4-57 82-63 122-42 12 7 21 19 24 35" id="aS"/><g id="C"><use transform="matrix(0.14814814814814817,0,0,0.14814814814814817,0,0)" xlink:href="#aR"/><use transform="matrix(0.14814814814814817,0,0,0.14814814814814817,38.370370370370374,0)" xlink:href="#aS"/><use transform="matrix(0.14814814814814817,0,0,0.14814814814814817,65.03703703703704,0)" xlink:href="#aC"/><use transform="matrix(0.14814814814814817,0,0,0.14814814814814817,94.66666666666669,0)" xlink:href="#aP"/></g><path d="M233-177c-1 41-23 64-60 70L243 0h-38l-65-103H63V0H30v-248c88 3 205-21 203 71zM63-129c60-2 137 13 137-47 0-61-80-42-137-45v92" id="aT"/><path d="M115-194c53 0 69 39 70 98 0 66-23 100-70 100C84 3 66-7 56-30L54 0H23l1-261h32v101c10-23 28-34 59-34zm-8 174c40 0 45-34 45-75 0-40-5-75-45-74-42 0-51 32-51 76 0 43 10 73 51 73" id="aU"/><path d="M240 0l2-218c-23 76-54 145-80 218h-23L58-218 59 0H30v-248h44l77 211c21-75 51-140 76-211h43V0h-30" id="aV"/><path d="M140-251c81 0 123 46 123 126C263-53 228-8 163 1c7 30 30 48 69 40v23c-55 16-95-15-103-61C56-3 17-48 17-125c0-80 42-126 123-126zm0 227c63 0 89-41 89-101s-29-99-89-99c-61 0-89 39-89 99S79-25 140-24" id="aW"/><g id="D"><use transform="matrix(0.14814814814814817,0,0,0.14814814814814817,0,0)" xlink:href="#aT"/><use transform="matrix(0.14814814814814817,0,0,0.14814814814814817,38.370370370370374,0)" xlink:href="#aE"/><use transform="matrix(0.14814814814814817,0,0,0.14814814814814817,68,0)" xlink:href="#aU"/><use transform="matrix(0.14814814814814817,0,0,0.14814814814814817,97.62962962962962,0)" xlink:href="#aU"/><use transform="matrix(0.14814814814814817,0,0,0.14814814814814817,127.25925925925925,0)" xlink:href="#aK"/><use transform="matrix(0.14814814814814817,0,0,0.14814814814814817,138.96296296296296,0)" xlink:href="#aO"/><use transform="matrix(0.14814814814814817,0,0,0.14814814814814817,153.77777777777777,0)" xlink:href="#aV"/><use transform="matrix(0.14814814814814817,0,0,0.14814814814814817,198.07407407407408,0)" xlink:href="#aW"/></g><path d="M160-131c35 5 61 23 61 61C221 17 115-2 30 0v-248c76 3 177-17 177 60 0 33-19 50-47 57zm-97-11c50-1 110 9 110-42 0-47-63-36-110-37v79zm0 115c55-2 124 14 124-45 0-56-70-42-124-44v89" id="aX"/><path d="M100-194c62-1 85 37 85 99 1 63-27 99-86 99S16-35 15-95c0-66 28-99 85-99zM99-20c44 1 53-31 53-75 0-43-8-75-51-75s-53 32-53 75 10 74 51 75" id="aY"/><path d="M143 0L79-87 56-68V0H24v-261h32v163l83-92h37l-77 82L181 0h-38" id="aZ"/><g id="E"><use transform="matrix(0.14814814814814817,0,0,0.14814814814814817,0,0)" xlink:href="#aX"/><use transform="matrix(0.14814814814814817,0,0,0.14814814814814817,35.55555555555556,0)" xlink:href="#aP"/><use transform="matrix(0.14814814814814817,0,0,0.14814814814814817,53.18518518518519,0)" xlink:href="#aY"/><use transform="matrix(0.14814814814814817,0,0,0.14814814814814817,82.81481481481482,0)" xlink:href="#aZ"/><use transform="matrix(0.14814814814814817,0,0,0.14814814814814817,109.4814814814815,0)" xlink:href="#aC"/><use transform="matrix(0.14814814814814817,0,0,0.14814814814814817,139.11111111111114,0)" xlink:href="#aP"/></g><path fill="#282c33" d="M212-179c-10-28-35-45-73-45-59 0-87 40-87 99 0 60 29 101 89 101 43 0 62-24 78-52l27 14C228-24 195 4 139 4 59 4 22-46 18-125c-6-104 99-153 187-111 19 9 31 26 39 46" id="ba"/><path fill="#282c33" d="M24 0v-261h32V0H24" id="bb"/><g id="F"><use transform="matrix(0.14814814814814817,0,0,0.14814814814814817,0,0)" xlink:href="#ba"/><use transform="matrix(0.14814814814814817,0,0,0.14814814814814817,38.370370370370374,0)" xlink:href="#bb"/><use transform="matrix(0.14814814814814817,0,0,0.14814814814814817,50.07407407407407,0)" xlink:href="#U"/><use transform="matrix(0.14814814814814817,0,0,0.14814814814814817,61.777777777777786,0)" xlink:href="#O"/><use transform="matrix(0.14814814814814817,0,0,0.14814814814814817,91.40740740740742,0)" xlink:href="#P"/><use transform="matrix(0.14814814814814817,0,0,0.14814814814814817,121.03703703703705,0)" xlink:href="#Q"/><use transform="matrix(0.14814814814814817,0,0,0.14814814814814817,135.85185185185188,0)" xlink:href="#T"/></g><g id="G"><use transform="matrix(0.1111111111111111,0,0,0.1111111111111111,0,0)" xlink:href="#aA"/><use transform="matrix(0.1111111111111111,0,0,0.1111111111111111,22.22222222222222,0)" xlink:href="#K"/><use transform="matrix(0.1111111111111111,0,0,0.1111111111111111,44.44444444444444,0)" xlink:href="#Z"/><use transform="matrix(0.1111111111111111,0,0,0.1111111111111111,66.66666666666666,0)" xlink:href="#ab"/></g><path fill="#282c33" d="M160-131c35 5 61 23 61 61C221 17 115-2 30 0v-248c76 3 177-17 177 60 0 33-19 50-47 57zm-97-11c50-1 110 9 110-42 0-47-63-36-110-37v79zm0 115c55-2 124 14 124-45 0-56-70-42-124-44v89" id="bc"/><g id="H"><use transform="matrix(0.1111111111111111,0,0,0.1111111111111111,0,0)" xlink:href="#bc"/><use transform="matrix(0.1111111111111111,0,0,0.1111111111111111,26.666666666666664,0)" xlink:href="#Z"/><use transform="matrix(0.1111111111111111,0,0,0.1111111111111111,48.888888888888886,0)" xlink:href="#bb"/><use transform="matrix(0.1111111111111111,0,0,0.1111111111111111,57.666666666666664,0)" xlink:href="#Z"/><use transform="matrix(0.1111111111111111,0,0,0.1111111111111111,79.88888888888889,0)" xlink:href="#P"/><use transform="matrix(0.1111111111111111,0,0,0.1111111111111111,102.11111111111111,0)" xlink:href="#L"/><use transform="matrix(0.1111111111111111,0,0,0.1111111111111111,122.1111111111111,0)" xlink:href="#O"/><use transform="matrix(0.1111111111111111,0,0,0.1111111111111111,144.33333333333334,0)" xlink:href="#S"/></g><path d="M30-248c118-7 216 8 213 122C240-48 200 0 122 0H30v-248zM63-27c89 8 146-16 146-99s-60-101-146-95v194" id="bd"/><g id="I"><use transform="matrix(0.14814814814814817,0,0,0.14814814814814817,0,0)" xlink:href="#bd"/><use transform="matrix(0.14814814814814817,0,0,0.14814814814814817,38.370370370370374,0)" xlink:href="#aE"/><use transform="matrix(0.14814814814814817,0,0,0.14814814814814817,68,0)" xlink:href="#aO"/><use transform="matrix(0.14814814814814817,0,0,0.14814814814814817,82.81481481481481,0)" xlink:href="#aE"/><use transform="matrix(0.14814814814814817,0,0,0.14814814814814817,112.44444444444444,0)" xlink:href="#aU"/><use transform="matrix(0.14814814814814817,0,0,0.14814814814814817,142.07407407407408,0)" xlink:href="#aE"/><use transform="matrix(0.14814814814814817,0,0,0.14814814814814817,171.7037037037037,0)" xlink:href="#aS"/><use transform="matrix(0.14814814814814817,0,0,0.14814814814814817,198.3703703703704,0)" xlink:href="#aC"/></g></defs></g></svg>